<?xml version="1.0" encoding="UTF-8"?>
<svg version="1.1" xmlns="http://www.w3.org/2000/svg" width="752" height="272">
<path d="M0 0 C0.76699219 0.34933594 1.53398437 0.69867188 2.32421875 1.05859375 C16.9974897 8.45924873 25.78988187 21.04679747 31.1171875 36.171875 C34.77172992 52.01900583 32.27509816 67.56368719 23.8125 81.25 C16.11086407 92.96389386 4.16210161 102.34918658 -9.6953125 105.5625 C-26.42024218 107.77667509 -42.03952971 106.1530693 -56 96 C-67.8085064 86.89464567 -76.16024602 74.33745128 -78.68359375 59.515625 C-80.40166793 45.85587469 -77.57950081 31.58637233 -70 20 C-69.01 19.34 -68.02 18.68 -67 18 C-66.01 18.66 -65.02 19.32 -64 20 C-64.41631148 23.33049181 -65.24659426 25.45208948 -66.875 28.4375 C-72.8731655 40.01789981 -73.47438484 53.51268688 -70.1171875 65.90234375 C-64.77230369 80.72224886 -55.06658396 90.07921143 -41.13671875 96.73828125 C-29.09484063 101.5820255 -14.935905 100.99912904 -3 96 C10.53454851 89.11042561 19.44161256 79.57243361 24.28125 64.94921875 C27.69780242 50.93021289 25.68650783 37.67897307 19 25 C11.82333729 14.10438145 1.53183293 6.10641844 -11.1875 2.6875 C-19.95730263 1.03046064 -29.24302331 1.59303074 -38 3 C-38.495 0.525 -38.495 0.525 -39 -2 C-27.61010762 -8.18741382 -11.22115312 -5.21297665 0 0 Z " fill="#21bf73" transform="translate(151,90)"/>
<path d="M0 0 C1.44222258 -0.01646041 2.88436698 -0.04361814 4.32617188 -0.08203125 C19.8635647 -0.49368893 19.8635647 -0.49368893 26.11938477 5.35009766 C29.34133263 8.88384692 30.26699877 12.0571186 30.30688477 16.78759766 C30.32106445 17.54943359 30.33524414 18.31126953 30.34985352 19.09619141 C30.09483544 21.59018176 29.28443197 23.15514873 28.11938477 25.35009766 C28.3632559 27.95138978 28.9488064 29.14398213 30.61938477 31.16259766 C33.12550308 34.81735352 33.42169296 38.27661913 32.78735352 42.62744141 C31.63524973 47.09463094 30.2679307 49.72137033 26.36938477 52.28759766 C18.31750565 56.85360228 10.34158065 56.6573699 1.30688477 56.60009766 C0.06745117 56.60783203 -1.17198242 56.61556641 -2.44897461 56.62353516 C-3.62911133 56.62095703 -4.80924805 56.61837891 -6.02514648 56.61572266 C-7.10127197 56.6134668 -8.17739746 56.61121094 -9.28613281 56.60888672 C-11.88061523 56.35009766 -11.88061523 56.35009766 -13.88061523 54.35009766 C-14.11108398 52.22119141 -14.11108398 52.22119141 -14.06811523 49.78759766 C-14.06166992 48.98193359 -14.05522461 48.17626953 -14.04858398 47.34619141 C-13.88061523 45.35009766 -13.88061523 45.35009766 -12.88061523 44.35009766 C-10.78337398 44.20359849 -8.68149825 44.12260817 -6.57983398 44.06884766 C-5.29270508 44.03146484 -4.00557617 43.99408203 -2.67944336 43.95556641 C-1.30901398 43.91989433 0.06142906 43.88474355 1.43188477 43.85009766 C4.09485148 43.78224733 6.75742645 43.70845145 9.42016602 43.63134766 C10.60779541 43.60105469 11.7954248 43.57076172 13.01904297 43.53955078 C15.5602521 43.38426467 17.69792241 43.08883621 20.11938477 42.35009766 C20.01769315 39.40282231 20.01769315 39.40282231 19.11938477 36.35009766 C15.36764875 34.30876193 11.97926885 34.06742121 7.76000977 33.97119141 C6.5624707 33.93703125 5.36493164 33.90287109 4.13110352 33.86767578 C2.88973633 33.84125 1.64836914 33.81482422 0.36938477 33.78759766 C-2.10467761 33.72796641 -4.57864917 33.66438919 -7.05249023 33.59619141 C-8.69362793 33.56029907 -8.69362793 33.56029907 -10.36791992 33.52368164 C-12.88061523 33.35009766 -12.88061523 33.35009766 -13.88061523 32.35009766 C-13.97852093 30.85271641 -14.01036388 29.35066873 -14.00561523 27.85009766 C-14.00819336 27.03541016 -14.01077148 26.22072266 -14.01342773 25.38134766 C-13.88061523 23.35009766 -13.88061523 23.35009766 -12.88061523 22.35009766 C-10.91732229 22.21615971 -8.94957437 22.14653679 -6.98217773 22.10400391 C-5.78077148 22.07113281 -4.57936523 22.03826172 -3.34155273 22.00439453 C-0.79215981 21.94338564 1.75732429 21.88607075 4.30688477 21.83251953 C5.51086914 21.79835937 6.71485352 21.76419922 7.95532227 21.72900391 C9.06439941 21.70394775 10.17347656 21.6788916 11.31616211 21.65307617 C14.32582949 21.54619174 14.32582949 21.54619174 17.11938477 19.35009766 C17.36969454 16.76629588 17.36969454 16.76629588 17.11938477 14.35009766 C13.72432499 12.30693076 11.00725689 12.0639379 7.07641602 11.97119141 C5.92077148 11.93703125 4.76512695 11.90287109 3.57446289 11.86767578 C2.37241211 11.84125 1.17036133 11.81482422 -0.06811523 11.78759766 C-2.45754565 11.72795707 -4.84688217 11.66437792 -7.23608398 11.59619141 C-8.294646 11.57226318 -9.35320801 11.54833496 -10.44384766 11.52368164 C-12.88061523 11.35009766 -12.88061523 11.35009766 -13.88061523 10.35009766 C-13.97852093 8.85271641 -14.01036388 7.35066873 -14.00561523 5.85009766 C-14.00819336 5.03541016 -14.01077148 4.22072266 -14.01342773 3.38134766 C-13.65602814 -2.08476383 -4.30224421 0.0359208 0 0 Z " fill="#21bf73" transform="translate(362.880615234375,113.64990234375)"/>
<path d="M0 0 C0.97710937 -0.04898438 1.95421875 -0.09796875 2.9609375 -0.1484375 C5.625 0.375 5.625 0.375 7.0769043 2.4206543 C8.91687598 5.93200855 10.51356109 9.52051151 12.05859375 13.16796875 C12.53740746 14.2870739 12.53740746 14.2870739 13.02589417 15.42878723 C13.6990558 17.0039647 14.37048544 18.57988334 15.0402832 20.15649414 C16.05245894 22.53886622 17.06966927 24.91903456 18.08789062 27.29882812 C19.6745993 31.01114329 21.24449354 34.73027721 22.80877686 38.4520874 C23.53170261 40.15520383 24.27624478 41.84910905 25.02392578 43.54150391 C25.58635986 44.84547119 25.58635986 44.84547119 26.16015625 46.17578125 C26.63207397 47.23986206 26.63207397 47.23986206 27.11352539 48.32543945 C27.77075256 50.95905381 27.36089345 52.78714925 26.625 55.375 C25.00280239 56.99719761 23.20987883 56.51052467 20.96923828 56.52026367 C19.48231979 56.52983345 19.48231979 56.52983345 17.96536255 56.53959656 C16.88624603 56.54070938 15.80712952 56.5418222 14.6953125 56.54296875 C13.04340408 56.54796135 13.04340408 56.54796135 11.35812378 56.55305481 C9.02277038 56.55812928 6.68740969 56.56046298 4.35205078 56.56030273 C0.77233956 56.56248637 -2.80706225 56.58062896 -6.38671875 56.59960938 C-8.65104061 56.60254371 -10.91536394 56.60452824 -13.1796875 56.60546875 C-14.79228958 56.61624702 -14.79228958 56.61624702 -16.43746948 56.62724304 C-17.4350528 56.62416641 -18.43263611 56.62108978 -19.46044922 56.61791992 C-20.7782991 56.62005745 -20.7782991 56.62005745 -22.12277222 56.62223816 C-24.375 56.375 -24.375 56.375 -27.375 54.375 C-26.86292856 50.61980943 -26.1574918 47.70811475 -24.375 44.375 C-12.58684671 43.40508865 -1.1672094 43.47851624 10.625 44.375 C10.39312988 43.79532471 10.16125977 43.21564941 9.92236328 42.6184082 C6.82324219 34.87060547 3.72412109 27.12280273 0.625 19.375 C-2.54141864 25.58657019 -5.53422435 31.84818658 -8.359375 38.22265625 C-9.375 40.375 -9.375 40.375 -10.375 41.375 C-12.06108966 41.44705511 -13.75000659 41.45886068 -15.4375 41.4375 C-16.35660156 41.42847656 -17.27570313 41.41945312 -18.22265625 41.41015625 C-18.93292969 41.39855469 -19.64320313 41.38695312 -20.375 41.375 C-22.11461382 36.39875361 -20.26495365 32.81399629 -18.2265625 28.265625 C-17.89457855 27.49820984 -17.5625946 26.73079468 -17.22055054 25.94012451 C-16.1593615 23.49615704 -15.0797084 21.06083368 -14 18.625 C-13.28008627 16.97055798 -12.56132276 15.31561495 -11.84375 13.66015625 C-5.97984149 0.20403659 -5.97984149 0.20403659 0 0 Z " fill="#21bf73" transform="translate(425.375,113.625)"/>
<path d="M0 0 C0.75796875 0.44472656 1.5159375 0.88945313 2.296875 1.34765625 C3.34875 1.94578125 4.400625 2.54390625 5.484375 3.16015625 C17.41704997 12.44112567 24.84465062 22.72036344 27.234375 38.03515625 C28.00807051 49.54848227 24.6208704 60.86166314 18.296875 70.34765625 C16.646875 70.01765625 14.996875 69.68765625 13.296875 69.34765625 C13.78818017 64.55743079 15.31124006 60.78814122 17.359375 56.49609375 C20.68946835 48.86462981 20.46970684 38.92853757 18.42578125 30.9453125 C13.99888764 19.6676196 7.18664802 11.55339302 -3.80859375 6.3515625 C-14.66145604 1.96423519 -25.80354012 2.50411842 -36.703125 6.34765625 C-46.13227112 11.28943765 -54.12901961 19.13439823 -57.75 29.28125 C-60.77733202 40.4909464 -60.87366342 51.60237061 -55.2265625 62.08984375 C-48.72889341 71.85118225 -41.04560921 78.04402007 -29.703125 81.34765625 C-22.20035634 82.60980425 -15.20249205 82.34757186 -7.703125 81.34765625 C-6.703125 82.34765625 -6.703125 82.34765625 -6.640625 84.91015625 C-6.66125 85.71453125 -6.681875 86.51890625 -6.703125 87.34765625 C-15.9863511 91.83953985 -25.70641315 90.35422076 -35.3046875 87.6015625 C-47.94875903 83.08582267 -56.74971742 74.79843804 -62.453125 62.84765625 C-68.24330708 49.25655362 -68.25654233 36.22296008 -62.703125 22.34765625 C-56.81715023 11.20021332 -47.22530758 3.16954442 -35.703125 -1.65234375 C-34.98898438 -2.01585938 -34.27484375 -2.379375 -33.5390625 -2.75390625 C-23.21281502 -6.02530697 -9.53163244 -4.83313001 0 0 Z " fill="#21bf73" transform="translate(147.703125,97.65234375)"/>
<path d="M0 0 C1.76949095 -0.10815225 3.54087487 -0.18566083 5.3125 -0.25 C6.29863281 -0.29640625 7.28476562 -0.3428125 8.30078125 -0.390625 C11 0 11 0 12.53840637 1.74380493 C13.96845922 3.95131194 15.04999773 6.07412609 16.0847168 8.48974609 C16.65496834 9.81164444 16.65496834 9.81164444 17.23674011 11.1602478 C17.83691704 12.5775267 17.83691704 12.5775267 18.44921875 14.0234375 C18.86669876 15.00236969 19.28417877 15.98130188 19.71430969 16.98989868 C20.59379281 19.05810656 21.47028615 21.12758801 22.34399414 23.19824219 C23.68170512 26.36129784 25.03662803 29.51660299 26.39257812 32.671875 C27.2458569 34.68444453 28.09810508 36.69745139 28.94921875 38.7109375 C29.35540939 39.65174164 29.76160004 40.59254578 30.18009949 41.56185913 C30.5508107 42.44942902 30.92152191 43.3369989 31.3034668 44.25146484 C31.63195114 45.02549652 31.96043549 45.7995282 32.2988739 46.59701538 C33 49 33 49 33 55 C15.18 55 -2.64 55 -21 55 C-22.19491898 50.22032407 -21.38305011 49.1245098 -19 45 C-17.02170928 43.02170928 -13.17672973 43.74496068 -10.46484375 43.68359375 C-9.71159317 43.66281265 -8.95834259 43.64203156 -8.18226624 43.62062073 C-5.7674401 43.55504575 -3.35250202 43.49620379 -0.9375 43.4375 C0.69597529 43.3943223 2.3294391 43.35070827 3.96289062 43.30664062 C7.97514464 43.19935638 11.98751164 43.09811179 16 43 C15.72736328 42.34926514 15.45472656 41.69853027 15.17382812 41.02807617 C13.94373441 38.08347363 12.72178441 35.13555938 11.5 32.1875 C11.07074219 31.16333984 10.64148438 30.13917969 10.19921875 29.08398438 C9.59013672 27.60961914 9.59013672 27.60961914 8.96875 26.10546875 C8.59169922 25.19949951 8.21464844 24.29353027 7.82617188 23.36010742 C7 21 7 21 7 18 C6.34 18 5.68 18 5 18 C4.85304688 18.57105469 4.70609375 19.14210937 4.5546875 19.73046875 C2.48656415 27.20661579 -0.62428745 34.03008218 -4 41 C-7.3 41 -10.6 41 -14 41 C-16 37 -16 37 -14.97363281 33.58007812 C-14.39959184 32.22353023 -13.80823133 30.87422861 -13.203125 29.53125 C-12.89429382 28.813927 -12.58546265 28.096604 -12.26727295 27.35754395 C-11.27602696 25.0650655 -10.26329784 22.78280428 -9.25 20.5 C-8.5819272 18.96284995 -7.91524387 17.42509521 -7.25 15.88671875 C-2.2086986 4.27577905 -2.2086986 4.27577905 0 0 Z " fill="#21bf73" transform="translate(550,114)"/>
<path d="M0 0 C1.77503906 0.03480469 1.77503906 0.03480469 3.5859375 0.0703125 C5.36871094 0.09738281 5.36871094 0.09738281 7.1875 0.125 C8.10273438 0.14820312 9.01796875 0.17140625 9.9609375 0.1953125 C10.4559375 1.6803125 10.4559375 1.6803125 10.9609375 3.1953125 C9.87890625 4.88671875 9.87890625 4.88671875 8.1484375 6.7578125 C7.19324219 7.79615234 7.19324219 7.79615234 6.21875 8.85546875 C2.19177223 13.0287554 -1.90106113 17.13224475 -6.0390625 21.1953125 C-2.78896406 26.56092956 0.58605653 31.74440071 4.35546875 36.7578125 C5.24455933 37.94818115 5.24455933 37.94818115 6.15161133 39.16259766 C7.3484109 40.75520829 8.55776224 42.33847104 9.7800293 43.91162109 C10.334729 44.65234863 10.88942871 45.39307617 11.4609375 46.15625 C11.96625 46.81415527 12.4715625 47.47206055 12.9921875 48.14990234 C14.27803615 50.86483177 13.83753873 52.3779209 12.9609375 55.1953125 C11.39152552 56.76472448 9.81958756 56.4402972 7.6484375 56.5078125 C6.47861328 56.56388672 6.47861328 56.56388672 5.28515625 56.62109375 C1.47004919 55.92219178 -0.39774032 53.04065248 -2.6706543 50.04467773 C-3.18797119 49.28872314 -3.70528809 48.53276855 -4.23828125 47.75390625 C-4.80740234 46.92310547 -5.37652344 46.09230469 -5.96289062 45.23632812 C-6.54490234 44.37716797 -7.12691406 43.51800781 -7.7265625 42.6328125 C-8.32017578 41.76978516 -8.91378906 40.90675781 -9.52539062 40.01757812 C-13.90957496 33.58377511 -13.90957496 33.58377511 -15.0390625 30.1953125 C-15.8228125 30.8553125 -16.6065625 31.5153125 -17.4140625 32.1953125 C-20.0390625 34.1953125 -20.0390625 34.1953125 -22.0390625 34.1953125 C-22.02335205 34.75516846 -22.0076416 35.31502441 -21.99145508 35.8918457 C-21.92906402 38.4303984 -21.89006032 40.96878979 -21.8515625 43.5078125 C-21.82642578 44.38888672 -21.80128906 45.26996094 -21.77539062 46.17773438 C-21.76088867 47.44907227 -21.76088867 47.44907227 -21.74609375 48.74609375 C-21.72252808 49.91652222 -21.72252808 49.91652222 -21.69848633 51.1105957 C-22.13183749 53.76320183 -22.88803097 54.61994827 -25.0390625 56.1953125 C-31.15067319 56.85012793 -31.15067319 56.85012793 -33.70214844 54.96948242 C-37.80907104 49.51933514 -36.63161161 39.51883368 -35.83544922 33.109375 C-33.70603666 25.31763118 -26.48542457 20.60829725 -20.31445312 15.95458984 C-16.87073998 13.2919936 -13.75397963 10.31608778 -10.6015625 7.3203125 C-9.56288748 6.36274741 -8.52267274 5.406848 -7.48046875 4.453125 C-2.86428703 0.18408014 -2.86428703 0.18408014 0 0 Z " fill="#21bf73" transform="translate(248.0390625,113.8046875)"/>
<path d="M0 0 C3.91399979 -0.87060452 7.09821761 -1.00659009 11 0 C14.49879278 3.16055766 16.96014064 6.91182243 19.53271484 10.82421875 C22.41254501 15.09460917 25.54881582 19.18264235 28.625 23.3125 C29.84790731 24.97411846 31.06938804 26.63678834 32.2890625 28.30078125 C32.81193848 29.01403564 33.33481445 29.72729004 33.87353516 30.4621582 C34.43113525 31.22338989 34.43113525 31.22338989 35 32 C35.03758423 30.59923218 35.03758423 30.59923218 35.07592773 29.17016602 C35.17086928 25.71674811 35.27011258 22.2635104 35.37231445 18.81030273 C35.41571813 17.31360731 35.45738913 15.81686061 35.49731445 14.32006836 C35.55488616 12.17285688 35.61861716 10.02590479 35.68359375 7.87890625 C35.72025146 6.5854126 35.75690918 5.29191895 35.79467773 3.95922852 C36 1 36 1 37 0 C38.66429051 -0.09823937 40.33281931 -0.12973631 42 -0.125 C43.36125 -0.12886719 43.36125 -0.12886719 44.75 -0.1328125 C47 0 47 0 48 1 C48.10911664 2.64626943 48.14906246 4.29718398 48.16113281 5.94702148 C48.17074036 7.00159042 48.1803479 8.05615936 48.19024658 9.14268494 C48.19449646 10.29055984 48.19874634 11.43843475 48.203125 12.62109375 C48.20882507 13.79132584 48.21452515 14.96155792 48.22039795 16.16725159 C48.22986441 18.64803152 48.23638843 21.12882413 48.24023438 23.60961914 C48.24994949 27.41770176 48.28096209 31.22524712 48.3125 35.03320312 C48.31902859 37.43749678 48.32427963 39.84179431 48.328125 42.24609375 C48.3404718 43.39194443 48.3528186 44.5377951 48.36553955 45.71836853 C48.36253845 46.77608963 48.35953735 47.83381073 48.35644531 48.92358398 C48.36191376 50.3247068 48.36191376 50.3247068 48.36749268 51.75413513 C48.24622009 52.49527054 48.12494751 53.23640594 48 54 C44.31549646 56.45633569 42.58466571 56.41298494 38.31835938 55.81201172 C33.81693568 54.23537575 31.76933371 50.41231467 29.25 46.5625 C28.65928711 45.71083252 28.06857422 44.85916504 27.45996094 43.98168945 C26.22990709 42.20812725 25.01025302 40.42730987 23.80078125 38.63964844 C21.56123828 35.35684765 19.23313165 32.14518101 16.89013672 28.93579102 C15.27147089 26.71693218 13.66938866 24.48691074 12.0703125 22.25390625 C10.0543339 19.44570807 8.00755037 16.6650328 5.9296875 13.90234375 C5.2176416 12.9429187 5.2176416 12.9429187 4.49121094 11.96411133 C3.60618499 10.77274241 2.71153984 9.58843522 1.80566406 8.4128418 C-1.05387701 4.53008026 -1.05387701 4.53008026 -0.7578125 1.6171875 C-0.50773437 1.08351563 -0.25765625 0.54984375 0 0 Z " fill="#21bf73" transform="translate(290,114)"/>
<path d="M0 0 C3.79133313 -0.53273399 7.22170245 -0.69554878 11 0 C14.12740358 2.3627953 15.98866958 5.33275522 18.0625 8.625 C18.64467285 9.48134033 19.2268457 10.33768066 19.82666016 11.2199707 C21.00874987 12.96098151 22.17656556 14.7117732 23.32958984 16.47216797 C25.28841077 19.43645208 27.34367303 22.31896593 29.4309082 25.19360352 C31.30596341 27.7825428 33.15236472 30.39144736 35 33 C35.03758423 31.55379272 35.03758423 31.55379272 35.07592773 30.07836914 C35.16985306 26.51312158 35.27010939 22.94807567 35.37231445 19.38305664 C35.41571985 17.83785711 35.45739071 16.29260786 35.49731445 14.74731445 C35.55488199 12.53060904 35.61861424 10.3141552 35.68359375 8.09765625 C35.70866249 7.05545677 35.70866249 7.05545677 35.73423767 5.99220276 C35.88612829 1.11387171 35.88612829 1.11387171 37 0 C38.66429051 -0.09823937 40.33281931 -0.12973631 42 -0.125 C43.36125 -0.12886719 43.36125 -0.12886719 44.75 -0.1328125 C47 0 47 0 48 1 C48.09868509 2.65191396 48.12798837 4.30803217 48.12939453 5.96289062 C48.13254669 7.02068726 48.13569885 8.07848389 48.13894653 9.16833496 C48.1369223 10.31934692 48.13489807 11.47035889 48.1328125 12.65625 C48.13376923 13.82885376 48.13472595 15.00145752 48.13571167 16.20959473 C48.1363937 18.69458062 48.13453784 21.17956829 48.13037109 23.66455078 C48.12502319 27.48343887 48.13031536 31.30220935 48.13671875 35.12109375 C48.13605797 37.52864609 48.13477682 39.93619837 48.1328125 42.34375 C48.13483673 43.49476196 48.13686096 44.64577393 48.13894653 45.83166504 C48.13421829 47.41835999 48.13421829 47.41835999 48.12939453 49.03710938 C48.12859894 49.97341187 48.12780334 50.90971436 48.12698364 51.87438965 C48 54 48 54 47 55 C43.01105479 56.26478751 39.98795751 56.2964559 36 55 C31.67236678 51.25583591 28.67779134 46.09618423 25.56347656 41.35253906 C23.5046099 38.25459416 21.32720216 35.25204446 19.13671875 32.24633789 C18.04672207 30.75035647 16.96335331 29.249523 15.88671875 27.74389648 C13.15688801 23.92717339 10.37655133 20.16997914 7.4765625 16.48046875 C6.91388672 15.75794922 6.35121094 15.03542969 5.77148438 14.29101562 C4.69958365 12.92157661 3.61547246 11.56157977 2.51757812 10.21289062 C1.0703125 8.35546875 1.0703125 8.35546875 -1 5 C-0.62939453 2.2902832 -0.62939453 2.2902832 0 0 Z " fill="#21bf73" transform="translate(475,114)"/>
<path d="M0 0 C0.8125 1.6875 0.8125 1.6875 1 4 C-1.04296875 6.35546875 -1.04296875 6.35546875 -4 9 C-5.04435545 10.0311232 -6.0819484 11.06913283 -7.11328125 12.11328125 C-10.07552083 15.07552083 -13.03776042 18.03776042 -16 21 C-12.74990156 26.36561706 -9.37488097 31.54908821 -5.60546875 36.5625 C-4.71637817 37.75286865 -4.71637817 37.75286865 -3.80932617 38.96728516 C-2.6125266 40.55989579 -1.40317526 42.14315854 -0.1809082 43.71630859 C0.3737915 44.45703613 0.92849121 45.19776367 1.5 45.9609375 C2.0053125 46.61884277 2.510625 47.27674805 3.03125 47.95458984 C4.30666881 50.6474978 3.81802079 52.19840053 3 55 C-0.8559747 55.70173069 -4.16231062 55.88562063 -8 55 C-11.46676388 51.85400431 -13.60131545 47.98840098 -16 44 C-17.63406867 41.5811051 -19.31915914 39.19902984 -21 36.8125 C-22.33740809 34.87777399 -23.66844768 32.93876483 -25 31 C-27.46800047 32.15173355 -29.04783565 33.04783565 -31 35 C-31.35205609 36.90027353 -31.35205609 36.90027353 -31.37890625 39.0625 C-31.41306641 39.85914063 -31.44722656 40.65578125 -31.48242188 41.4765625 C-31.50884766 42.30929688 -31.53527344 43.14203125 -31.5625 44 C-31.62237701 45.64598081 -31.68600242 47.29183079 -31.75390625 48.9375 C-31.77783447 49.66839844 -31.8017627 50.39929688 -31.82641602 51.15234375 C-32 53 -32 53 -33 55 C-34.64574566 55.02688151 -36.29161413 55.04634123 -37.9375 55.0625 C-38.85402344 55.07410156 -39.77054688 55.08570313 -40.71484375 55.09765625 C-43 55 -43 55 -44 54 C-45.22060023 45.94590202 -46.59753472 35.17854568 -42.84863281 27.70458984 C-39.97749714 23.89904393 -36.43784991 20.98027597 -32.60644531 18.17675781 C-30.57087713 16.68565771 -28.73419281 15.01611182 -26.875 13.3125 C-26.25882813 12.80203125 -25.64265625 12.2915625 -25.0078125 11.765625 C-22.85108247 9.92231233 -22.85108247 9.92231233 -20.4921875 7.359375 C-13.84032857 0.57485791 -9.5008772 -1.49228438 0 0 Z " fill="#21bf73" transform="translate(633,114)"/>
<path d="M0 0 C0.86777573 -0.0159874 1.73555145 -0.03197479 2.62962341 -0.04844666 C3.56403763 -0.05380936 4.49845184 -0.05917206 5.46118164 -0.06469727 C6.42407608 -0.07372574 7.38697052 -0.08275421 8.37904358 -0.09205627 C10.41574999 -0.10656507 12.45250307 -0.11544707 14.48925781 -0.11914062 C17.6063471 -0.13104626 20.72146285 -0.18023349 23.83813477 -0.23071289 C25.81664072 -0.24017598 27.79515884 -0.24741156 29.77368164 -0.25219727 C30.70607162 -0.27172958 31.63846161 -0.2912619 32.59910583 -0.31138611 C39.01638045 -0.26660347 39.01638045 -0.26660347 42.26293945 2.52050781 C43.73751629 5.4116412 44.22694719 7.21823928 44.32836914 10.43920898 C44.36510742 11.41116211 44.4018457 12.38311523 44.43969727 13.38452148 C44.46773437 14.89272461 44.46773437 14.89272461 44.49633789 16.43139648 C44.53436523 17.41366211 44.57239258 18.39592773 44.61157227 19.40795898 C45.16481046 37.29991752 45.16481046 37.29991752 41.74633789 41.93139648 C37.56293446 44.72033211 33.9491166 44.42049845 29.05883789 44.36889648 C28.25704102 44.36438477 27.45524414 44.35987305 26.62915039 44.35522461 C24.64734783 44.34342817 22.66558356 44.32549253 20.68383789 44.30639648 C20.68383789 44.96639648 20.68383789 45.62639648 20.68383789 46.30639648 C21.81821289 46.57452148 22.95258789 46.84264648 24.12133789 47.11889648 C25.88477539 47.70670898 25.88477539 47.70670898 27.68383789 48.30639648 C28.01383789 49.29639648 28.34383789 50.28639648 28.68383789 51.30639648 C28.18883789 52.29639648 28.18883789 52.29639648 27.68383789 53.30639648 C21.08383789 53.30639648 14.48383789 53.30639648 7.68383789 53.30639648 C7.18883789 50.83139648 7.18883789 50.83139648 6.68383789 48.30639648 C9.39263124 46.95199981 11.69317057 47.24138198 14.68383789 47.30639648 C14.68383789 46.31639648 14.68383789 45.32639648 14.68383789 44.30639648 C13.4424707 44.35280273 12.20110352 44.39920898 10.92211914 44.44702148 C9.28021619 44.48455069 7.63828712 44.52094962 5.99633789 44.55639648 C5.1797168 44.58991211 4.3630957 44.62342773 3.52172852 44.65795898 C-0.61908218 44.72501665 -2.74365061 44.66486423 -6.33569336 42.41577148 C-10.81536415 37.64452449 -9.50216004 31.36375313 -9.50146484 25.18554688 C-9.50364322 23.01273783 -9.52177962 20.84044325 -9.54077148 18.66772461 C-9.54370719 17.28035655 -9.5456908 15.89298608 -9.54663086 14.50561523 C-9.55073975 13.24579834 -9.55484863 11.98598145 -9.55908203 10.68798828 C-9.32194534 7.38690249 -8.88039314 5.20665336 -7.31616211 2.30639648 C-4.2243087 0.24516088 -3.50912133 0.0489382 0 0 Z M-2.31616211 5.30639648 C-4.51808435 8.60927985 -4.55576179 9.58102375 -4.51147461 13.41186523 C-4.50647949 14.29769287 -4.50148438 15.18352051 -4.49633789 16.09619141 C-4.47812988 17.21743408 -4.45992188 18.33867676 -4.44116211 19.49389648 C-4.39991211 23.06202148 -4.35866211 26.63014648 -4.31616211 30.30639648 C9.87383789 30.30639648 24.06383789 30.30639648 38.68383789 30.30639648 C38.70446289 26.36702148 38.72508789 22.42764648 38.74633789 18.36889648 C38.75544189 17.12503174 38.7645459 15.88116699 38.77392578 14.59960938 C38.77642334 13.62757568 38.7789209 12.65554199 38.78149414 11.65405273 C38.78673096 10.6538208 38.79196777 9.65358887 38.79736328 8.62304688 C38.94564884 6.34432421 38.94564884 6.34432421 37.68383789 5.30639648 C34.75019515 5.1804645 31.8413811 5.11771582 28.90649414 5.10327148 C28.02481064 5.09757141 27.14312714 5.09187134 26.23472595 5.08599854 C24.36596889 5.07653443 22.49719503 5.07000898 20.62841797 5.06616211 C17.76183141 5.05644898 14.89595931 5.0254362 12.02954102 4.99389648 C10.21769633 4.98736757 8.4058465 4.98211666 6.59399414 4.97827148 C5.30175682 4.95975128 5.30175682 4.95975128 3.9834137 4.94085693 C1.31807191 4.91558074 1.31807191 4.91558074 -2.31616211 5.30639648 Z M-3.31616211 35.30639648 C-2.98616211 36.62639648 -2.65616211 37.94639648 -2.31616211 39.30639648 C10.88383789 39.30639648 24.08383789 39.30639648 37.68383789 39.30639648 C38.01383789 37.98639648 38.34383789 36.66639648 38.68383789 35.30639648 C24.82383789 35.30639648 10.96383789 35.30639648 -3.31616211 35.30639648 Z " fill="#21bf73" transform="translate(110.316162109375,117.693603515625)"/>
<path d="M0 0 C1.69384766 1.11523438 1.69384766 1.11523438 3 3 C3.38818359 5.95507812 3.38818359 5.95507812 3.3984375 9.53125 C3.40230469 10.81644531 3.40617187 12.10164062 3.41015625 13.42578125 C3.40387207 14.09432129 3.39758789 14.76286133 3.39111328 15.45166016 C3.37505354 17.4931933 3.39096671 19.53274708 3.41015625 21.57421875 C3.40628906 22.85941406 3.40242188 24.14460938 3.3984375 25.46875 C3.39505371 26.64888672 3.39166992 27.82902344 3.38818359 29.04492188 C3 32 3 32 1.69384766 33.88476562 C-1.16695932 35.76832951 -3.69393532 35.35422122 -7 35 C-8.69384766 33.88476562 -8.69384766 33.88476562 -10 32 C-10.38818359 29.04492188 -10.38818359 29.04492188 -10.3984375 25.46875 C-10.40230469 24.18355469 -10.40617187 22.89835937 -10.41015625 21.57421875 C-10.40387207 20.90567871 -10.39758789 20.23713867 -10.39111328 19.54833984 C-10.37505354 17.5068067 -10.39096671 15.46725292 -10.41015625 13.42578125 C-10.40628906 12.14058594 -10.40242188 10.85539063 -10.3984375 9.53125 C-10.39505371 8.35111328 -10.39166992 7.17097656 -10.38818359 5.95507812 C-10 3 -10 3 -8.69384766 1.11523438 C-5.83304068 -0.76832951 -3.30606468 -0.35422122 0 0 Z " fill="#21bf73" transform="translate(276,135)"/>
<path d="M0 0 C3.3 0 6.6 0 10 0 C10 10.89 10 21.78 10 33 C6.7 33 3.4 33 0 33 C-1.90849948 31.09150052 -1.13059633 27.68521226 -1.1328125 25.15625 C-1.13376923 24.47195923 -1.13472595 23.78766846 -1.13571167 23.0826416 C-1.1363933 21.63338123 -1.13454023 20.18411782 -1.13037109 18.73486328 C-1.12502252 16.50937072 -1.1303166 14.28407999 -1.13671875 12.05859375 C-1.13605797 10.65364539 -1.1347768 9.24869715 -1.1328125 7.84375 C-1.13168457 6.55662109 -1.13055664 5.26949219 -1.12939453 3.94335938 C-1 1 -1 1 0 0 Z " fill="#21bf73" transform="translate(643,136)"/>
<path d="M0 0 C4.29 0 8.58 0 13 0 C12.96744792 3.25520833 12.93489583 6.51041667 12.90234375 9.765625 C12.98262814 12.42464389 13.33000291 14.46487589 14 17 C13 18 13 18 10.59155273 18.11352539 C9.54942627 18.10828857 8.5072998 18.10305176 7.43359375 18.09765625 C6.30888672 18.09443359 5.18417969 18.09121094 4.02539062 18.08789062 C2.84138672 18.07951172 1.65738281 18.07113281 0.4375 18.0625 C-0.75037109 18.05798828 -1.93824219 18.05347656 -3.16210938 18.04882812 C-6.10812226 18.03699675 -9.05403681 18.02051287 -12 18 C-12.33 16.35 -12.66 14.7 -13 13 C-7.1314592 11.85180723 -1.9114744 12.22686955 4 13 C4 12.34 4 11.68 4 11 C2.68 11 1.36 11 0 11 C-0.33 10.01 -0.66 9.02 -1 8 C-0.34 7.34 0.32 6.68 1 6 C0.34 5.34 -0.32 4.68 -1 4 C-0.67 2.68 -0.34 1.36 0 0 Z " fill="#21bf73" transform="translate(128,127)"/>
<path d="M0 0 C2.53206564 2.40130168 2.98250182 3.85298099 3.3984375 7.34765625 C3.39070312 8.57355469 3.38296875 9.79945312 3.375 11.0625 C3.38273438 12.29097656 3.39046875 13.51945312 3.3984375 14.78515625 C3 18 3 18 1.6953125 19.9140625 C-1.14158081 21.731243 -3.73870525 21.29118703 -7 21 C-7.99 20.34 -8.98 19.68 -10 19 C-10.24905022 16.24858808 -10.32673572 13.74330188 -10.25 11 C-10.24484375 10.26265625 -10.2396875 9.5253125 -10.234375 8.765625 C-10.15472274 3.30944549 -10.15472274 3.30944549 -9 1 C-5.70024471 -0.09991843 -3.45570193 -0.35996895 0 0 Z " fill="#21bf73" transform="translate(223,113)"/>
<path d="M0 0 C1.62463842 -0.05395478 3.24978541 -0.09277195 4.875 -0.125 C5.77992188 -0.14820312 6.68484375 -0.17140625 7.6171875 -0.1953125 C10 0 10 0 12 2 C12.22555081 4.52792663 12.32438591 6.91055576 12.3125 9.4375 C12.32861328 10.11876953 12.34472656 10.80003906 12.36132812 11.50195312 C12.36418018 14.41390207 12.33903696 16.49093549 10.69921875 18.953125 C7.84749106 20.71005148 5.24701761 20.28991229 2 20 C1.01 19.34 0.02 18.68 -1 18 C-1.24905022 15.24858808 -1.32673572 12.74330188 -1.25 10 C-1.24484375 9.26265625 -1.2396875 8.5253125 -1.234375 7.765625 C-1.15472274 2.30944549 -1.15472274 2.30944549 0 0 Z " fill="#21bf73" transform="translate(267,114)"/>
<path d="M0 0 C2.61959624 2.61959624 2.28856227 4.54853793 2.32226562 8.12109375 C2.31904297 8.90613281 2.31582031 9.69117188 2.3125 10.5 C2.32861328 11.28503906 2.34472656 12.07007813 2.36132812 12.87890625 C2.36328125 15.15625 2.36328125 15.15625 2 19 C-1.46998729 21.31332486 -2.92509248 21.33957563 -7 21 C-7.99 20.34 -8.98 19.68 -10 19 C-10.30279086 16.07895874 -10.41810841 13.41700216 -10.375 10.5 C-10.38660156 9.71496094 -10.39820313 8.92992187 -10.41015625 8.12109375 C-10.3984375 5.84375 -10.3984375 5.84375 -10 2 C-6.32653229 -0.44897847 -4.33643601 -0.31537716 0 0 Z " fill="#21bf73" transform="translate(299,149)"/>
<path d="M0 0 C1.8855253 1.8855253 1.13246689 4.57768831 1.13671875 7.08203125 C1.13285156 7.87996094 1.12898438 8.67789063 1.125 9.5 C1.12886719 10.29792969 1.13273437 11.09585938 1.13671875 11.91796875 C1.12660767 17.87339233 1.12660767 17.87339233 0 19 C-1.66429051 19.09823937 -3.33281931 19.12973631 -5 19.125 C-6.36125 19.12886719 -6.36125 19.12886719 -7.75 19.1328125 C-10 19 -10 19 -11 18 C-11.15322744 15.17413249 -11.23162755 12.38956118 -11.25 9.5625 C-11.270625 8.77294922 -11.29125 7.98339844 -11.3125 7.16992188 C-11.328125 4.87890625 -11.328125 4.87890625 -11 1 C-6.80117625 -1.79921583 -4.87872887 -0.86558093 0 0 Z " fill="#21bf73" transform="translate(485,150)"/>
<path d="M0 0 C1.37478516 0.01740234 1.37478516 0.01740234 2.77734375 0.03515625 C3.69644531 0.04417969 4.61554687 0.05320312 5.5625 0.0625 C6.27277344 0.07410156 6.98304688 0.08570312 7.71484375 0.09765625 C9.23199214 3.13195302 8.85848291 6.27367292 8.83984375 9.59765625 C8.84371094 10.28730469 8.84757813 10.97695312 8.8515625 11.6875 C8.84151021 16.84432332 8.84151021 16.84432332 7.71484375 19.09765625 C6.06909809 19.12453776 4.42322962 19.14399748 2.77734375 19.16015625 C1.86082031 19.17175781 0.94429687 19.18335938 0 19.1953125 C-2.28515625 19.09765625 -2.28515625 19.09765625 -3.28515625 18.09765625 C-3.385026 15.25430577 -3.42393506 12.44068462 -3.41015625 9.59765625 C-3.41402344 8.79972656 -3.41789063 8.00179687 -3.421875 7.1796875 C-3.40993279 0.14572362 -3.40993279 0.14572362 0 0 Z " fill="#21bf73" transform="translate(592.28515625,113.90234375)"/>
<path d="M0 0 C0.66 0.33 1.32 0.66 2 1 C1.84660156 1.78632812 1.69320312 2.57265625 1.53515625 3.3828125 C0.87005679 7.87830226 0.64586315 12.33883176 0.4375 16.875 C0.39431641 17.75414062 0.35113281 18.63328125 0.30664062 19.5390625 C0.20130661 21.69255797 0.10022351 23.84626064 0 26 C0.66 26 1.32 26 2 26 C2 19.4 2 12.8 2 6 C2.33 6 2.66 6 3 6 C3 13.26 3 20.52 3 28 C5.97 28 8.94 28 12 28 C12 28.33 12 28.66 12 29 C10.37509046 29.02698189 8.75005367 29.04638757 7.125 29.0625 C6.22007813 29.07410156 5.31515625 29.08570313 4.3828125 29.09765625 C2 29 2 29 0 28 C0.33 30.31 0.66 32.62 1 35 C1.66 34.01 2.32 33.02 3 32 C4.87295532 31.63923645 4.87295532 31.63923645 7.17431641 31.65942383 C8.03505768 31.65965042 8.89579895 31.65987701 9.78262329 31.66011047 C10.71287323 31.67559433 11.64312317 31.69107819 12.6015625 31.70703125 C13.55316254 31.71127609 14.50476257 31.71552094 15.48519897 31.71989441 C18.53208414 31.73672104 21.57831391 31.77438046 24.625 31.8125 C26.68749046 31.82754169 28.74999127 31.84123099 30.8125 31.85351562 C35.8752535 31.88663761 40.93751554 31.93844716 46 32 C46.38218767 33.65614657 46.71395102 35.32457024 47 37 C44.87646752 39.12353248 40.20073822 38.30809307 37.2578125 38.38671875 C35.93884476 38.42500542 35.93884476 38.42500542 34.5932312 38.46406555 C32.72872925 38.51617357 30.86415042 38.56558827 28.99951172 38.61254883 C26.14376919 38.6870106 23.28883583 38.77768019 20.43359375 38.86914062 C18.62502652 38.91766541 16.81643304 38.96522329 15.0078125 39.01171875 C14.15148224 39.04077805 13.29515198 39.06983734 12.41287231 39.09977722 C6.34313734 39.22875823 6.34313734 39.22875823 3 37 C3.33 38.32 3.66 39.64 4 41 C0.83884224 39.63016497 0.0072908 39.0109362 -2 36 C-2.25878906 32.89306641 -2.25878906 32.89306641 -2.265625 29.1015625 C-2.26753845 28.42958832 -2.2694519 27.75761414 -2.27142334 27.0652771 C-2.27278299 25.64475123 -2.26910186 24.22421286 -2.26074219 22.80371094 C-2.25007241 20.63968636 -2.26062695 18.47649822 -2.2734375 16.3125 C-2.27211521 14.92968568 -2.26955138 13.54687188 -2.265625 12.1640625 C-2.26224121 10.28388428 -2.26224121 10.28388428 -2.25878906 8.36572266 C-2.01043167 5.13567081 -1.39022741 2.90125411 0 0 Z M4 33 C4.33 34.32 4.66 35.64 5 37 C18.2 37 31.4 37 45 37 C45.33 35.68 45.66 34.36 46 33 C32.14 33 18.28 33 4 33 Z " fill="#21bf73" transform="translate(103,120)"/>
<path d="M0 0 C0.66 0.33 1.32 0.66 2 1 C2 8.92 2 16.84 2 25 C-1.18362677 25.79590669 -3.18810038 26.11374166 -6.35375977 26.06591797 C-7.2046669 26.05615936 -8.05557404 26.04640076 -8.93226624 26.03634644 C-10.29804054 26.01448776 -10.29804054 26.01448776 -11.69140625 25.9921875 C-13.62434377 25.97467802 -15.55728681 25.95776909 -17.49023438 25.94140625 C-20.53425301 25.91038252 -23.57799713 25.87476503 -26.62182617 25.82861328 C-29.56172166 25.78637409 -32.5012909 25.76286716 -35.44140625 25.7421875 C-36.8102169 25.71425613 -36.8102169 25.71425613 -38.2066803 25.6857605 C-39.05443527 25.68230621 -39.90219025 25.67885193 -40.77563477 25.67529297 C-41.52079849 25.66561493 -42.26596222 25.65593689 -43.03370667 25.64596558 C-45.52138264 26.09387582 -46.40735723 27.09329588 -48 29 C-48 26.36 -48 23.72 -48 21 C-32.49 21 -16.98 21 -1 21 C-0.67 14.07 -0.34 7.14 0 0 Z " fill="#21bf73" transform="translate(151,127)"/>
<path d="M0 0 C0.8146875 0.00257812 1.629375 0.00515625 2.46875 0.0078125 C3.2834375 0.00523438 4.098125 0.00265625 4.9375 0 C6.96875 0.1328125 6.96875 0.1328125 7.96875 1.1328125 C8.05506874 2.47548663 8.07581473 3.82255572 8.06640625 5.16796875 C8.06318359 5.97685547 8.05996094 6.78574219 8.05664062 7.61914062 C8.04826172 8.46927734 8.03988281 9.31941406 8.03125 10.1953125 C8.02673828 11.04931641 8.02222656 11.90332031 8.01757812 12.78320312 C8.00575373 14.89976913 7.98781769 17.01629935 7.96875 19.1328125 C6.32300434 19.15969401 4.67713587 19.17915373 3.03125 19.1953125 C2.11472656 19.20691406 1.19820312 19.21851563 0.25390625 19.23046875 C-2.03125 19.1328125 -2.03125 19.1328125 -3.03125 18.1328125 C-3.13111975 15.28946202 -3.17002881 12.47584087 -3.15625 9.6328125 C-3.16011719 8.83488281 -3.16398438 8.03695312 -3.16796875 7.21484375 C-3.15606979 0.20635841 -3.15606979 0.20635841 0 0 Z " fill="#21bf73" transform="translate(645.03125,113.8671875)"/>
<path d="M0 0 C1.69775391 1.10742188 1.69775391 1.10742188 3 3 C3.38818359 5.95507812 3.38818359 5.95507812 3.3984375 9.53125 C3.40230469 10.81644531 3.40617187 12.10164062 3.41015625 13.42578125 C3.40387207 14.09432129 3.39758789 14.76286133 3.39111328 15.45166016 C3.37505354 17.4931933 3.39096671 19.53274708 3.41015625 21.57421875 C3.40628906 22.85941406 3.40242188 24.14460938 3.3984375 25.46875 C3.39505371 26.64888672 3.39166992 27.82902344 3.38818359 29.04492188 C3 32 3 32 1.69384766 33.88476562 C-1.16695932 35.76832951 -3.69393532 35.35422122 -7 35 C-8.70043945 33.78198242 -8.70043945 33.78198242 -10 32 C-10.34057617 29.73168945 -10.34057617 29.73168945 -10.29296875 27.11328125 C-10.28330078 26.17548828 -10.27363281 25.23769531 -10.26367188 24.27148438 C-10.23853516 23.29501953 -10.21339844 22.31855469 -10.1875 21.3125 C-10.17396484 20.32443359 -10.16042969 19.33636719 -10.14648438 18.31835938 C-10.11112203 15.87835769 -10.06177033 13.43945281 -10 11 C-9.67 11 -9.34 11 -9 11 C-8.89042969 12.27617187 -8.78085937 13.55234375 -8.66796875 14.8671875 C-8.50853738 16.53652772 -8.34834145 18.20579505 -8.1875 19.875 C-8.11724609 20.71675781 -8.04699219 21.55851562 -7.97460938 22.42578125 C-7.89404297 23.23144531 -7.81347656 24.03710938 -7.73046875 24.8671875 C-7.66239014 25.61081543 -7.59431152 26.35444336 -7.52416992 27.12060547 C-7.10913312 29.39845252 -7.10913312 29.39845252 -4 31 C-4 29.68 -4 28.36 -4 27 C-3.34 27 -2.68 27 -2 27 C-1.67 27.66 -1.34 28.32 -1 29 C-0.34 29 0.32 29 1 29 C1 20.09 1 11.18 1 2 C-2.3 2.33 -5.6 2.66 -9 3 C-9 2.34 -9 1.68 -9 1 C-5.95016004 -0.52491998 -3.3576631 -0.23562548 0 0 Z " fill="#21bf73" transform="translate(276,135)"/>
<path d="M0 0 C13.2 0 26.4 0 40 0 C35.44673971 3.03550686 32.30400127 3.11960817 26.92578125 3.09765625 C25.90003242 3.09553383 25.90003242 3.09553383 24.8535614 3.09336853 C22.67316278 3.08777876 20.49286749 3.07522822 18.3125 3.0625 C16.83268378 3.05748367 15.35286594 3.052921 13.87304688 3.04882812 C10.24866443 3.03781271 6.6243423 3.02055512 3 3 C2.67 4.32 2.34 5.64 2 7 C1.34 7 0.68 7 0 7 C0 13.6 0 20.2 0 27 C-0.66 27 -1.32 27 -2 27 C-2.05811773 23.25006521 -2.09363593 19.50024648 -2.125 15.75 C-2.14175781 14.68652344 -2.15851563 13.62304688 -2.17578125 12.52734375 C-2.18222656 11.50253906 -2.18867187 10.47773438 -2.1953125 9.421875 C-2.20578613 8.47924805 -2.21625977 7.53662109 -2.22705078 6.56542969 C-2 4 -2 4 0 0 Z " fill="#21bf73" transform="translate(105,119)"/>
<path d="M0 0 C5.75 0.75 5.75 0.75 8 3 C19.21258594 6.39964358 30.39960812 6.3371481 42 6 C41.67 6.99 41.34 7.98 41 9 C29.33447445 10.94162333 14.36337084 12.65246949 4 6 C1.375 3.875 1.375 3.875 0 2 C0 1.34 0 0.68 0 0 Z " fill="#21bf73" transform="translate(99,185)"/>
<path d="M0 0 C0.66 0.33 1.32 0.66 2 1 C2.31568466 6.05095461 1.6289878 9.49399472 -0.265625 14.16796875 C-4.55097636 24.85855272 -1.26684992 36.83376627 3 47 C-1.75870287 43.38994955 -2.96132197 38.64828565 -4 33 C-4.6287775 25.09675053 -3.93989294 17.67296941 -2 10 C-5.17344529 11.6626312 -5.17344529 11.6626312 -5.765625 14.43359375 C-6.99317991 22.0464141 -7.5982181 29.55574737 -5.39453125 37.0625 C-4.93025244 39.34252267 -5.2949857 40.80662219 -6 43 C-10.31396104 30.18650859 -10.53816771 17.5679909 -5 5 C-2.35546875 2.09375 -2.35546875 2.09375 0 0 Z " fill="#21bf73" transform="translate(90,115)"/>
<path d="M0 0 C4.76721948 4.3648135 6.08639156 9.86784505 6.4765625 16.12109375 C6.53941701 17.89280519 6.58874817 19.66504466 6.625 21.4375 C6.67575777 23.2279803 6.73023482 25.01836042 6.7890625 26.80859375 C6.80662598 27.59032959 6.82418945 28.37206543 6.84228516 29.17749023 C6.8047335 31.01923707 6.8047335 31.01923707 8 32 C8.66 31.34 9.32 30.68 10 30 C9.41529782 37.01642621 6.88080417 42.17879374 3 48 C1.35 47.67 -0.3 47.34 -2 47 C-1.50869483 42.20977454 0.01436506 38.44048497 2.0625 34.1484375 C5.30339808 26.7213794 5.27451691 16.56377236 3.10546875 8.796875 C2.41048334 7.11712228 1.67242422 5.45392461 0.875 3.8203125 C0 2 0 2 0 0 Z " fill="#21bf73" transform="translate(163,120)"/>
<path d="M0 0 C0.66 0 1.32 0 2 0 C1.9278125 0.57105469 1.855625 1.14210938 1.78125 1.73046875 C-0.41855598 19.20481927 -0.41855598 19.20481927 5.625 35.13671875 C7 37 7 37 6.6875 39.25 C6.460625 39.8275 6.23375 40.405 6 41 C2.51497649 39.25748824 0.74269965 36.35975011 -1 33 C-4.40297117 22.66169595 -5.67857101 11.13389319 -1 1 C-0.67 0.67 -0.34 0.34 0 0 Z " fill="#21bf73" transform="translate(86,125)"/>
<path d="M0 0 C3.14181296 2.8543705 4.92379222 5.4326487 6.625 9.3125 C7.23214844 10.66794922 7.23214844 10.66794922 7.8515625 12.05078125 C10.61602118 19.14998636 11.33820964 25.26929247 11.3125 32.8125 C11.32861328 33.74642578 11.34472656 34.68035156 11.36132812 35.64257812 C11.36589725 42.22669232 10.22590204 47.81076274 8 54 C7.67 54 7.34 54 7 54 C6.84635949 49.69806563 6.87341671 45.9776847 8 41.8125 C8.83700615 38.62141407 9.20324987 36.25199789 9 33 C8.34 32.67 7.68 32.34 7 32 C6.92652344 33.37285156 6.92652344 33.37285156 6.8515625 34.7734375 C6.77679688 35.96195313 6.70203125 37.15046875 6.625 38.375 C6.55539063 39.55835938 6.48578125 40.74171875 6.4140625 41.9609375 C6 45 6 45 4 47 C4.0721875 45.865625 4.144375 44.73125 4.21875 43.5625 C4.31262811 42.04167457 4.40637087 40.52084078 4.5 39 C4.54769531 38.25621094 4.59539062 37.51242188 4.64453125 36.74609375 C4.94435744 31.82037776 5.04486229 26.93485224 5 22 C5.66 22.33 6.32 22.66 7 23 C7.33 23.99 7.66 24.98 8 26 C8.49776367 20.27571784 7.18511283 16.37457874 4.875 11.13671875 C4 9 4 9 4 7 C3.01 6.67 2.02 6.34 1 6 C0.67 4.02 0.34 2.04 0 0 Z " fill="#21bf73" transform="translate(172,108)"/>
<path d="M0 0 C0.66 0 1.32 0 2 0 C1.67 1.65 1.34 3.3 1 5 C1.66 5.33 2.32 5.66 3 6 C3 6.66 3 7.32 3 8 C5.8424854 9.57273568 5.8424854 9.57273568 9 10 C10.73565302 13.3203797 12.18174726 16.34566735 13 20 C5.07569721 20.45717131 5.07569721 20.45717131 1.5 18.9375 C-0.71240475 16.07981053 -0.80965197 13.55316319 -1 10 C-0.67 9.01 -0.34 8.02 0 7 C-0.66 7 -1.32 7 -2 7 C-1.125 1.125 -1.125 1.125 0 0 Z " fill="#21bf73" transform="translate(247,148)"/>
<path d="M0 0 C1.39025391 0.07831055 1.39025391 0.07831055 2.80859375 0.15820312 C5.08113901 0.28705878 7.35315099 0.42198311 9.625 0.5625 C10.1875 2.5 10.1875 2.5 10.625 4.5625 C9.625 5.5625 9.625 5.5625 7.21655273 5.67602539 C6.17442627 5.67078857 5.1322998 5.66555176 4.05859375 5.66015625 C2.93388672 5.65693359 1.80917969 5.65371094 0.65039062 5.65039062 C-0.53361328 5.64201172 -1.71761719 5.63363281 -2.9375 5.625 C-4.12537109 5.62048828 -5.31324219 5.61597656 -6.53710938 5.61132812 C-9.48312226 5.59949675 -12.42903681 5.58301287 -15.375 5.5625 C-15.705 3.9125 -16.035 2.2625 -16.375 0.5625 C-10.83278869 -0.6803547 -5.61609437 -0.34850229 0 0 Z " fill="#21bf73" transform="translate(131.375,139.4375)"/>
<path d="M0 0 C3.05203843 -0.29346523 5.95507976 -0.41161833 9 0 C11.3125 2.0625 11.3125 2.0625 13 5 C13.36996094 5.62390625 13.73992187 6.2478125 14.12109375 6.890625 C15.1112063 8.57621452 16.05919935 10.28639881 17 12 C15.66666667 12.33333333 14.33333333 12.66666667 13 13 C12.34 13.2475 11.68 13.495 11 13.75 C9 14 9 14 6.9375 12.9375 C4.54117052 10.54117052 3.37602624 8.07967777 2 5 C1.16666667 2.83333333 1.16666667 2.83333333 -1 2 C-0.67 1.34 -0.34 0.68 0 0 Z " fill="#21bf73" transform="translate(476,115)"/>
<path d="M0 0 C1.44222258 -0.01646041 2.88436698 -0.04361814 4.32617188 -0.08203125 C18.70291018 -0.46293781 18.70291018 -0.46293781 24.734375 3.87890625 C26.32034861 5.56356639 27.1919298 7.24073573 28.11938477 9.35009766 C25.80938477 8.03009766 23.49938477 6.71009766 21.11938477 5.35009766 C21.11938477 4.69009766 21.11938477 4.03009766 21.11938477 3.35009766 C20.45938477 3.35009766 19.79938477 3.35009766 19.11938477 3.35009766 C19.16063477 4.11322266 19.20188477 4.87634766 19.24438477 5.66259766 C19.11938477 8.35009766 19.11938477 8.35009766 17.11938477 11.35009766 C17.11938477 12.34009766 17.11938477 13.33009766 17.11938477 14.35009766 C16.584021 14.0279126 16.04865723 13.70572754 15.49707031 13.3737793 C12.57200662 12.1144311 10.2574282 12.04624601 7.07641602 11.97119141 C5.92077148 11.93703125 4.76512695 11.90287109 3.57446289 11.86767578 C2.37241211 11.84125 1.17036133 11.81482422 -0.06811523 11.78759766 C-2.45754565 11.72795707 -4.84688217 11.66437792 -7.23608398 11.59619141 C-8.294646 11.57226318 -9.35320801 11.54833496 -10.44384766 11.52368164 C-12.88061523 11.35009766 -12.88061523 11.35009766 -13.88061523 10.35009766 C-13.97852093 8.85271641 -14.01036388 7.35066873 -14.00561523 5.85009766 C-14.00819336 5.03541016 -14.01077148 4.22072266 -14.01342773 3.38134766 C-13.65602814 -2.08476383 -4.30224421 0.0359208 0 0 Z M-12.88061523 1.35009766 C-12.88061523 3.99009766 -12.88061523 6.63009766 -12.88061523 9.35009766 C-11.82111471 10.63436663 -11.82111471 10.63436663 -9.38037109 10.46362305 C-7.7543396 10.45576782 -7.7543396 10.45576782 -6.09545898 10.44775391 C-4.92563477 10.44453125 -3.75581055 10.44130859 -2.55053711 10.43798828 C-1.31883789 10.42960937 -0.08713867 10.42123047 1.18188477 10.41259766 C2.41745117 10.40808594 3.65301758 10.40357422 4.92602539 10.39892578 C7.99052593 10.38709373 11.05493198 10.37060939 14.11938477 10.35009766 C14.44938477 8.37009766 14.77938477 6.39009766 15.11938477 4.35009766 C15.77938477 4.35009766 16.43938477 4.35009766 17.11938477 4.35009766 C16.78938477 3.36009766 16.45938477 2.37009766 16.11938477 1.35009766 C6.54938477 1.35009766 -3.02061523 1.35009766 -12.88061523 1.35009766 Z " fill="#21bf73" transform="translate(362.880615234375,113.64990234375)"/>
<path d="M0 0 C0.33 0 0.66 0 1 0 C1.33 5.28 1.66 10.56 2 16 C-6 16 -6 16 -9 14 C-9.3125 11.5 -9.3125 11.5 -9 9 C-8.34 8.34 -7.68 7.68 -7 7 C-6.896875 6.34 -6.79375 5.68 -6.6875 5 C-6.3471875 4.01 -6.3471875 4.01 -6 3 C-3.5 1.8125 -3.5 1.8125 -1 1 C-0.67 0.67 -0.34 0.34 0 0 Z " fill="#21bf73" transform="translate(276,117)"/>
<path d="M0 0 C0.8146875 0.00257812 1.629375 0.00515625 2.46875 0.0078125 C3.2834375 0.00523438 4.098125 0.00265625 4.9375 0 C6.96875 0.1328125 6.96875 0.1328125 7.96875 1.1328125 C8.11132189 4.46899481 8.01103157 7.79256856 7.96875 11.1328125 C4.33875 11.1328125 0.70875 11.1328125 -3.03125 11.1328125 C-3.12890625 3.41796875 -3.12890625 3.41796875 -3.03125 1.1328125 C-2.03125 0.1328125 -2.03125 0.1328125 0 0 Z " fill="#21bf73" transform="translate(118.03125,126.8671875)"/>
<path d="M0 0 C4.03802247 3.70397681 7.12590754 8.01104713 10.3125 12.4375 C10.87517578 13.18837891 11.43785156 13.93925781 12.01757812 14.71289062 C12.54416016 15.44572266 13.07074219 16.17855469 13.61328125 16.93359375 C14.09579346 17.59415771 14.57830566 18.25472168 15.07543945 18.93530273 C16.29437596 21.65739041 15.86418663 23.19695212 15 26 C13.43058802 27.56941198 11.85865006 27.2449847 9.6875 27.3125 C6.17300855 27.29571103 5.30690833 27.23953821 2.4375 25 C1.963125 24.34 1.48875 23.68 1 23 C1.99 23 2.98 23 4 23 C4.33 23.33 4.66 23.66 5 24 C6.51469448 24.23192865 8.03754562 24.41215238 9.5625 24.5625 C10.38878906 24.64628906 11.21507812 24.73007813 12.06640625 24.81640625 C13.02353516 24.90728516 13.02353516 24.90728516 14 25 C13.525625 24.0925 13.05125 23.185 12.5625 22.25 C11.35371179 19.73572051 10.52006114 17.70431791 10 15 C9.01 15.33 8.02 15.66 7 16 C4.8125 14.5625 4.8125 14.5625 3 13 C3.33 12.34 3.66 11.68 4 11 C3.01 10.67 2.02 10.34 1 10 C1.66 8.35 2.32 6.7 3 5 C2.01 5.495 2.01 5.495 1 6 C0.67 6.99 0.34 7.98 0 9 C-0.66 9 -1.32 9 -2 9 C-2 5 -2 5 0 3 C0 2.01 0 1.02 0 0 Z " fill="#21bf73" transform="translate(246,143)"/>
<path d="M0 0 C0.99 0.33 1.98 0.66 3 1 C-0.97610786 3.71486934 -5.13901977 3.22440753 -9.75 3.125 C-10.54277344 3.11597656 -11.33554688 3.10695312 -12.15234375 3.09765625 C-14.10169281 3.07417012 -16.05088575 3.03830137 -18 3 C-18 3.66 -18 4.32 -18 5 C-16.865625 5.268125 -15.73125 5.53625 -14.5625 5.8125 C-13.386875 6.204375 -12.21125 6.59625 -11 7 C-10.67 7.99 -10.34 8.98 -10 10 C-10.33 10.66 -10.66 11.32 -11 12 C-17.6 12 -24.2 12 -31 12 C-31.33 10.35 -31.66 8.7 -32 7 C-29.29120665 5.64560332 -26.99066732 5.93498549 -24 6 C-23.67 5.34 -23.34 4.68 -23 4 C-22.67 4.99 -22.34 5.98 -22 7 C-23 8 -23 8 -26.5625 8.0625 C-27.696875 8.041875 -28.83125 8.02125 -30 8 C-30 8.66 -30 9.32 -30 10 C-24.06 10 -18.12 10 -12 10 C-12 9.34 -12 8.68 -12 8 C-14.64 8 -17.28 8 -20 8 C-20.042721 6.33388095 -20.04063832 4.66617115 -20 3 C-17.90429053 0.90429053 -13.4715583 1.62761101 -10.5625 1.5 C-5.11495857 1.49062339 -5.11495857 1.49062339 0 0 Z " fill="#21bf73" transform="translate(149,159)"/>
<path d="M0 0 C0.33 0 0.66 0 1 0 C0.9278125 0.67804688 0.855625 1.35609375 0.78125 2.0546875 C-0.19099317 11.80412593 -0.33156882 20.50744492 1.66015625 30.140625 C2.16791866 34.41283286 1.34936452 37.95190643 0 42 C-5.19929328 31.56172418 -7.44640126 22.65603293 -7 11 C-6.67 11 -6.34 11 -6 11 C-5.79503906 12.18078125 -5.59007813 13.3615625 -5.37890625 14.578125 C-5.10684695 16.13542997 -4.83470732 17.6927209 -4.5625 19.25 C-4.42779297 20.02730469 -4.29308594 20.80460937 -4.15429688 21.60546875 C-4.02216797 22.35957031 -3.89003906 23.11367187 -3.75390625 23.890625 C-3.63345947 24.58188477 -3.5130127 25.27314453 -3.38891602 25.98535156 C-2.99755584 28.01266117 -2.51910249 30.00194515 -2 32 C-2 29.54777963 -2.02951118 27.10013195 -2.0703125 24.6484375 C-2.08892772 22.89062905 -2.1071412 21.1328163 -2.125 19.375 C-2.14175781 18.51003906 -2.15851563 17.64507812 -2.17578125 16.75390625 C-2.21997589 10.85834069 -1.4715237 5.71229278 0 0 Z " fill="#21bf73" transform="translate(79,126)"/>
<path d="M0 0 C2.53206564 2.40130168 2.98250182 3.85298099 3.3984375 7.34765625 C3.39070312 8.57355469 3.38296875 9.79945312 3.375 11.0625 C3.38273438 12.29097656 3.39046875 13.51945312 3.3984375 14.78515625 C3 18 3 18 1.6953125 19.9140625 C-1.14158081 21.731243 -3.73870525 21.29118703 -7 21 C-7.99 20.34 -8.98 19.68 -10 19 C-10.24905022 16.24858808 -10.32673572 13.74330188 -10.25 11 C-10.24484375 10.26265625 -10.2396875 9.5253125 -10.234375 8.765625 C-10.15472274 3.30944549 -10.15472274 3.30944549 -9 1 C-5.70024471 -0.09991843 -3.45570193 -0.35996895 0 0 Z M-8 2 C-9.14077657 5.42232972 -9.09815117 8.08673217 -9.0625 11.6875 C-9.05347656 12.86699219 -9.04445312 14.04648438 -9.03515625 15.26171875 C-9.02355469 16.16535156 -9.01195312 17.06898438 -9 18 C-5.4202491 19.36893239 -5.4202491 19.36893239 1 19 C1 13.39 1 7.78 1 2 C-1.97 2 -4.94 2 -8 2 Z " fill="#21bf73" transform="translate(223,113)"/>
<path d="M0 0 C0.99 0.33 1.98 0.66 3 1 C2.73450331 4.67503307 2.3910528 8.33620772 2 12 C1.91234375 12.85980469 1.8246875 13.71960938 1.734375 14.60546875 C0.69730266 21.69588725 -2.58700578 26.4542586 -7 32 C-7.66 31.34 -8.32 30.68 -9 30 C-8.67386719 29.44054687 -8.34773437 28.88109375 -8.01171875 28.3046875 C-3.1283122 19.34457283 -1.63185627 9.97245501 0 0 Z " fill="#21bf73" transform="translate(179,140)"/>
<path d="M0 0 C0.12375 0.639375 0.2475 1.27875 0.375 1.9375 C0.58125 2.618125 0.7875 3.29875 1 4 C1.66 4.33 2.32 4.66 3 5 C0.71678702 7.83671915 -0.47238505 8.90757231 -4.11621094 9.54589844 C-5.31020508 9.5668457 -6.50419922 9.58779297 -7.734375 9.609375 C-9.02988281 9.64160156 -10.32539063 9.67382812 -11.66015625 9.70703125 C-13.02343302 9.72177469 -14.38671445 9.73609222 -15.75 9.75 C-17.12894376 9.77816814 -18.50785275 9.80809678 -19.88671875 9.83984375 C-23.25787216 9.91056725 -26.6283328 9.96325504 -30 10 C-30 12.31 -30 14.62 -30 17 C-21.75 17.33 -13.5 17.66 -5 18 C-5 18.33 -5 18.66 -5 19 C-9.31248609 19.02886537 -13.62494762 19.04675255 -17.9375 19.0625 C-19.16919922 19.07087891 -20.40089844 19.07925781 -21.66992188 19.08789062 C-22.83974609 19.09111328 -24.00957031 19.09433594 -25.21484375 19.09765625 C-26.84087524 19.10551147 -26.84087524 19.10551147 -28.49975586 19.11352539 C-31 19 -31 19 -32 18 C-32.0979057 16.50261876 -32.12974864 15.00057108 -32.125 13.5 C-32.12757813 12.6853125 -32.13015625 11.870625 -32.1328125 11.03125 C-32 9 -32 9 -31 8 C-29.03670705 7.86606205 -27.06895913 7.79643914 -25.1015625 7.75390625 C-23.90015625 7.72103516 -22.69875 7.68816406 -21.4609375 7.65429688 C-18.91154458 7.59328798 -16.36206048 7.53597309 -13.8125 7.48242188 C-12.60851562 7.44826172 -11.40453125 7.41410156 -10.1640625 7.37890625 C-9.05498535 7.3538501 -7.9459082 7.32879395 -6.80322266 7.30297852 C-3.79355528 7.19609408 -3.79355528 7.19609408 -1 5 C-0.27034634 2.43717258 -0.27034634 2.43717258 0 0 Z " fill="#21bf73" transform="translate(381,128)"/>
<path d="M0 0 C1.2694043 -0.01836914 1.2694043 -0.01836914 2.56445312 -0.03710938 C7.01296872 -0.04756008 10.51983487 0.08730641 14.5625 2.1875 C14.5625 2.8475 14.5625 3.5075 14.5625 4.1875 C5.3225 4.1875 -3.9175 4.1875 -13.4375 4.1875 C-13.4375 3.1975 -13.4375 2.2075 -13.4375 1.1875 C-8.9474458 -0.08530626 -4.63694686 0.0035155 0 0 Z " fill="#21bf73" transform="translate(127.4375,86.8125)"/>
<path d="M0 0 C2.75026417 -0.05404449 5.49946203 -0.09369306 8.25 -0.125 C9.02730469 -0.14175781 9.80460937 -0.15851563 10.60546875 -0.17578125 C17.72431144 -0.23662606 17.72431144 -0.23662606 21 2 C20.67 2.99 20.34 3.98 20 5 C18 5.75 18 5.75 16 6 C15.67 5.67 15.34 5.34 15 5 C12.65012738 4.76472227 10.29443961 4.58613583 7.9375 4.4375 C6.00197266 4.31181641 6.00197266 4.31181641 4.02734375 4.18359375 C2.52880859 4.09271484 2.52880859 4.09271484 1 4 C0.67 2.68 0.34 1.36 0 0 Z " fill="#21bf73" transform="translate(118,95)"/>
<path d="M0 0 C1.32 0.66 2.64 1.32 4 2 C3.2528885 7.97689202 0.29452054 13.05821919 -3 18 C-2.67 15.36 -2.34 12.72 -2 10 C-2.99 10.495 -2.99 10.495 -4 11 C-4.33 11.99 -4.66 12.98 -5 14 C-5.66 14 -6.32 14 -7 14 C-5.70677932 8.2392897 -3.62011357 4.66804118 0 0 Z " fill="#21bf73" transform="translate(83,108)"/>
<path d="M0 0 C1.37478516 0.01740234 1.37478516 0.01740234 2.77734375 0.03515625 C3.69644531 0.04417969 4.61554687 0.05320312 5.5625 0.0625 C6.27277344 0.07410156 6.98304688 0.08570312 7.71484375 0.09765625 C9.23199214 3.13195302 8.85848291 6.27367292 8.83984375 9.59765625 C8.84371094 10.28730469 8.84757813 10.97695312 8.8515625 11.6875 C8.84151021 16.84432332 8.84151021 16.84432332 7.71484375 19.09765625 C6.06909809 19.12453776 4.42322962 19.14399748 2.77734375 19.16015625 C1.86082031 19.17175781 0.94429687 19.18335938 0 19.1953125 C-2.28515625 19.09765625 -2.28515625 19.09765625 -3.28515625 18.09765625 C-3.385026 15.25430577 -3.42393506 12.44068462 -3.41015625 9.59765625 C-3.41402344 8.79972656 -3.41789063 8.00179687 -3.421875 7.1796875 C-3.40993279 0.14572362 -3.40993279 0.14572362 0 0 Z M-2.28515625 2.09765625 C-2.35835246 4.79420479 -2.37758162 7.46457083 -2.34765625 10.16015625 C-2.34314453 10.91876953 -2.33863281 11.67738281 -2.33398438 12.45898438 C-2.32216305 14.33857496 -2.30422703 16.21812524 -2.28515625 18.09765625 C1.13127134 18.34781498 1.13127134 18.34781498 4.71484375 18.09765625 C7.20603328 14.36087195 6.92136635 12.35313806 6.83984375 7.91015625 C6.82179688 6.63785156 6.80375 5.36554688 6.78515625 4.0546875 C6.76195312 3.07886719 6.73875 2.10304688 6.71484375 1.09765625 C1.91513633 0.56931909 1.91513633 0.56931909 -2.28515625 2.09765625 Z " fill="#21bf73" transform="translate(592.28515625,113.90234375)"/>
<path d="M0 0 C1.8855253 1.8855253 1.13246689 4.57768831 1.13671875 7.08203125 C1.13285156 7.87996094 1.12898438 8.67789063 1.125 9.5 C1.12886719 10.29792969 1.13273437 11.09585938 1.13671875 11.91796875 C1.12660767 17.87339233 1.12660767 17.87339233 0 19 C-1.66429051 19.09823937 -3.33281931 19.12973631 -5 19.125 C-6.36125 19.12886719 -6.36125 19.12886719 -7.75 19.1328125 C-10 19 -10 19 -11 18 C-11.15322744 15.17413249 -11.23162755 12.38956118 -11.25 9.5625 C-11.270625 8.77294922 -11.29125 7.98339844 -11.3125 7.16992188 C-11.328125 4.87890625 -11.328125 4.87890625 -11 1 C-6.80117625 -1.79921583 -4.87872887 -0.86558093 0 0 Z M-10 2 C-10.07313567 4.53049402 -10.09247527 7.03304837 -10.0625 9.5625 C-10.05798828 10.27341797 -10.05347656 10.98433594 -10.04882812 11.71679688 C-10.03700864 13.47790013 -10.01907263 15.23896036 -10 17 C-8.52093108 17.02689216 -7.04172517 17.04634621 -5.5625 17.0625 C-4.32693359 17.07990234 -4.32693359 17.07990234 -3.06640625 17.09765625 C-1.00836062 17.23267348 -1.00836062 17.23267348 0 16 C0.09909302 13.66839945 0.12970504 11.33370058 0.125 9 C0.12757813 7.72125 0.13015625 6.4425 0.1328125 5.125 C0.35860893 2.13312756 0.35860893 2.13312756 -1 1 C-2.87321948 0.83946185 -2.87321948 0.83946185 -5 0.875 C-5.721875 0.87242187 -6.44375 0.86984375 -7.1875 0.8671875 C-9.02089415 0.80304724 -9.02089415 0.80304724 -10 2 Z " fill="#21bf73" transform="translate(485,150)"/>
<path d="M0 0 C0.33 0 0.66 0 1 0 C1 10.89 1 21.78 1 33 C-2.64478912 33 -4.09303401 32.14197494 -7 30 C-7.625 27.9375 -7.625 27.9375 -8 26 C-8.99 25.34 -9.98 24.68 -11 24 C-11.6875 20.875 -11.6875 20.875 -12 18 C-7.64717853 22.09677315 -4.70850445 26.05532739 -1 31 C-0.67 20.77 -0.34 10.54 0 0 Z " fill="#21bf73" transform="translate(326,115)"/>
<path d="M0 0 C-0.31823791 2.97022046 -0.90161694 3.91207568 -3.16796875 5.9375 C-6.0591355 8.04306695 -8.92330383 9.66118837 -12.125 11.25 C-13.15882813 11.77078125 -14.19265625 12.2915625 -15.2578125 12.828125 C-18 14 -18 14 -21 14 C-20.03057858 11.54073093 -19.46193391 10.25875966 -17.1171875 8.9453125 C-16.37726563 8.67460937 -15.63734375 8.40390625 -14.875 8.125 C-10.55047427 6.37842256 -7.2304296 4.11130012 -3.62890625 1.171875 C-2 0 -2 0 0 0 Z " fill="#21bf73" transform="translate(163,179)"/>
<path d="M0 0 C0 1.65 0 3.3 0 5 C-4.39698453 7.12757316 -9.11691891 8.10973216 -14 8 C-14.99 7.34 -15.98 6.68 -17 6 C-16.07316406 5.87882813 -15.14632812 5.75765625 -14.19140625 5.6328125 C-12.99386719 5.46523437 -11.79632813 5.29765625 -10.5625 5.125 C-8.77005859 4.88136719 -8.77005859 4.88136719 -6.94140625 4.6328125 C-5.97074219 4.42398438 -5.00007813 4.21515625 -4 4 C-3.67 3.34 -3.34 2.68 -3 2 C-4.91425781 2.03480469 -4.91425781 2.03480469 -6.8671875 2.0703125 C-8.5364525 2.08906829 -10.2057238 2.10726869 -11.875 2.125 C-13.13763672 2.15013672 -13.13763672 2.15013672 -14.42578125 2.17578125 C-15.23144531 2.18222656 -16.03710938 2.18867188 -16.8671875 2.1953125 C-17.61081543 2.20578613 -18.35444336 2.21625977 -19.12060547 2.22705078 C-21 2 -21 2 -23 0 C-22.13117188 0.01160156 -21.26234375 0.02320313 -20.3671875 0.03515625 C-19.21476562 0.04417969 -18.06234375 0.05320313 -16.875 0.0625 C-15.16957031 0.07990234 -15.16957031 0.07990234 -13.4296875 0.09765625 C-0.76005613 -0.26309635 -0.76005613 -0.26309635 0 0 Z " fill="#21bf73" transform="translate(141,180)"/>
<path d="M0 0 C0.8146875 0.00257812 1.629375 0.00515625 2.46875 0.0078125 C3.2834375 0.00523438 4.098125 0.00265625 4.9375 0 C6.96875 0.1328125 6.96875 0.1328125 7.96875 1.1328125 C8.05506874 2.47548663 8.07581473 3.82255572 8.06640625 5.16796875 C8.06318359 5.97685547 8.05996094 6.78574219 8.05664062 7.61914062 C8.04826172 8.46927734 8.03988281 9.31941406 8.03125 10.1953125 C8.02673828 11.04931641 8.02222656 11.90332031 8.01757812 12.78320312 C8.00575373 14.89976913 7.98781769 17.01629935 7.96875 19.1328125 C6.32300434 19.15969401 4.67713587 19.17915373 3.03125 19.1953125 C2.11472656 19.20691406 1.19820312 19.21851563 0.25390625 19.23046875 C-2.03125 19.1328125 -2.03125 19.1328125 -3.03125 18.1328125 C-3.13111975 15.28946202 -3.17002881 12.47584087 -3.15625 9.6328125 C-3.16011719 8.83488281 -3.16398438 8.03695312 -3.16796875 7.21484375 C-3.15606979 0.20635841 -3.15606979 0.20635841 0 0 Z M-2.03125 1.1328125 C-2.03125 6.4128125 -2.03125 11.6928125 -2.03125 17.1328125 C0.63957039 18.65456169 0.63957039 18.65456169 6.96875 18.1328125 C6.96875 13.5128125 6.96875 8.8928125 6.96875 4.1328125 C5.64875 3.8028125 4.32875 3.4728125 2.96875 3.1328125 C2.63875 2.4728125 2.30875 1.8128125 1.96875 1.1328125 C0.64875 1.1328125 -0.67125 1.1328125 -2.03125 1.1328125 Z " fill="#21bf73" transform="translate(645.03125,113.8671875)"/>
<path d="M0 0 C1.65 0 3.3 0 5 0 C3.68 0.33 2.36 0.66 1 1 C1 1.66 1 2.32 1 3 C8.92 3 16.84 3 25 3 C25.33 2.01 25.66 1.02 26 0 C26.5625 1.9375 26.5625 1.9375 27 4 C26 5 26 5 23.59155273 5.11352539 C22.54942627 5.10828857 21.5072998 5.10305176 20.43359375 5.09765625 C19.30888672 5.09443359 18.18417969 5.09121094 17.02539062 5.08789062 C15.84138672 5.07951172 14.65738281 5.07113281 13.4375 5.0625 C12.24962891 5.05798828 11.06175781 5.05347656 9.83789062 5.04882812 C6.89187774 5.03699675 3.94596319 5.02051287 1 5 C0.67 3.35 0.34 1.7 0 0 Z " fill="#21bf73" transform="translate(115,140)"/>
<path d="M0 0 C1.51400391 0.01740234 1.51400391 0.01740234 3.05859375 0.03515625 C4.07050781 0.04417969 5.08242188 0.05320312 6.125 0.0625 C7.29869141 0.07990234 7.29869141 0.07990234 8.49609375 0.09765625 C9.15609375 1.41765625 9.81609375 2.73765625 10.49609375 4.09765625 C9.50609375 3.76765625 8.51609375 3.43765625 7.49609375 3.09765625 C7.49609375 2.43765625 7.49609375 1.77765625 7.49609375 1.09765625 C4.52609375 1.09765625 1.55609375 1.09765625 -1.50390625 1.09765625 C0.23886792 4.88926507 0.23886792 4.88926507 2.05859375 7.16015625 C3.49609375 9.09765625 3.49609375 9.09765625 4.49609375 12.09765625 C5.15609375 11.76765625 5.81609375 11.43765625 6.49609375 11.09765625 C7.48609375 13.40765625 8.47609375 15.71765625 9.49609375 18.09765625 C8.83609375 18.75765625 8.17609375 19.41765625 7.49609375 20.09765625 C5.83949251 17.87582627 4.19591959 15.64612237 2.55859375 13.41015625 C2.09001953 12.78431641 1.62144531 12.15847656 1.13867188 11.51367188 C-1.32508587 8.12822058 -3.25529866 5.42022039 -3.50390625 1.09765625 C-2.50390625 0.09765625 -2.50390625 0.09765625 0 0 Z " fill="#21bf73" transform="translate(477.50390625,113.90234375)"/>
<path d="M0 0 C2.97 0 5.94 0 9 0 C7.68 2.97 6.36 5.94 5 9 C3.35 8.67 1.7 8.34 0 8 C0 5.36 0 2.72 0 0 Z " fill="#21bf73" transform="translate(116,129)"/>
<path d="M0 0 C2.64752004 2.57784846 4.94432065 4.91648098 7 8 C6.625 10.6875 6.625 10.6875 6 13 C2.29013428 13.28783441 -1.29998705 13.45251957 -5 13 C-7.6875 10.5 -7.6875 10.5 -9 8 C-8.67 7.34 -8.34 6.68 -8 6 C-7.34 6.33 -6.68 6.66 -6 7 C-5.67 7.99 -5.34 8.98 -5 10 C-2.03 10.33 0.94 10.66 4 11 C3.71125 10.37351563 3.4225 9.74703125 3.125 9.1015625 C2.75375 8.28429687 2.3825 7.46703125 2 6.625 C1.62875 5.81289062 1.2575 5.00078125 0.875 4.1640625 C0 2 0 2 0 0 Z " fill="#21bf73" transform="translate(630,156)"/>
<path d="M0 0 C4.76721948 4.3648135 6.08639156 9.86784505 6.4765625 16.12109375 C6.53941701 17.89280519 6.58874817 19.66504466 6.625 21.4375 C6.67575777 23.2279803 6.73023482 25.01836042 6.7890625 26.80859375 C6.80662598 27.59032959 6.82418945 28.37206543 6.84228516 29.17749023 C6.8047335 31.01923707 6.8047335 31.01923707 8 32 C8.66 31.34 9.32 30.68 10 30 C9.67 32.31 9.34 34.62 9 37 C7.5 35.625 7.5 35.625 6 34 C6 33.34 6 32.68 6 32 C5.34 32 4.68 32 4 32 C4.02094727 31.44650879 4.04189453 30.89301758 4.06347656 30.32275391 C4.6233498 15.68911378 4.6233498 15.68911378 0 2 C0 1.34 0 0.68 0 0 Z " fill="#21bf73" transform="translate(163,120)"/>
<path d="M0 0 C2.64752004 2.57784846 4.94432065 4.91648098 7 8 C6.45945946 12.54054054 6.45945946 12.54054054 5 14 C1.96590677 14.37541519 -0.96942639 14.40796183 -4 14 C-6.5625 12 -6.5625 12 -8 10 C-7.01 10 -6.02 10 -5 10 C-4.67 10.33 -4.34 10.66 -4 11 C-2.48530552 11.23192865 -0.96245438 11.41215238 0.5625 11.5625 C1.38878906 11.64628906 2.21507812 11.73007813 3.06640625 11.81640625 C3.70449219 11.87699219 4.34257812 11.93757812 5 12 C4.319375 10.700625 4.319375 10.700625 3.625 9.375 C2.13733341 6.28523093 1.0123569 3.27069152 0 0 Z " fill="#21bf73" transform="translate(255,156)"/>
<path d="M0 0 C1.59698561 0.0533247 3.19399087 0.10606405 4.79101562 0.15820312 C8.67343676 0.28621708 12.55550553 0.42216394 16.4375 0.5625 C16.4375 0.8925 16.4375 1.2225 16.4375 1.5625 C8.32561002 2.41960536 0.27644707 2.67114532 -7.875 2.6875 C-8.80521973 2.69201172 -9.73543945 2.69652344 -10.69384766 2.70117188 C-16.07523119 2.68963003 -21.2381188 2.34898538 -26.5625 1.5625 C-26.5625 1.2325 -26.5625 0.9025 -26.5625 0.5625 C-17.70784578 -0.80992057 -8.91548028 -0.32411534 0 0 Z " fill="#21bf73" transform="translate(132.5625,148.4375)"/>
<path d="M0 0 C0.33 0.66 0.66 1.32 1 2 C-0.07335699 4.76674582 -1.20260061 7.43194258 -2.4375 10.125 C-2.77587891 10.87910156 -3.11425781 11.63320312 -3.46289062 12.41015625 C-4.30160601 14.27659331 -5.14991393 16.1387143 -6 18 C-9.3 18 -12.6 18 -16 18 C-16 17.67 -16 17.34 -16 17 C-13.03 17 -10.06 17 -7 17 C-7 15.68 -7 14.36 -7 13 C-6.34 13 -5.68 13 -5 13 C-5.66 10.36 -6.32 7.72 -7 5 C-5.824375 4.87625 -5.824375 4.87625 -4.625 4.75 C-1.85250896 4.27193661 -1.85250896 4.27193661 -0.6875 1.9375 C-0.460625 1.298125 -0.23375 0.65875 0 0 Z " fill="#21bf73" transform="translate(552,137)"/>
<path d="M0 0 C0.66 0.33 1.32 0.66 2 1 C2.33 1.99 2.66 2.98 3 4 C3.66 3.67 4.32 3.34 5 3 C5 5.31 5 7.62 5 10 C4.01 10 3.02 10 2 10 C1.95101562 10.91523438 1.90203125 11.83046875 1.8515625 12.7734375 C1.77679688 13.96195313 1.70203125 15.15046875 1.625 16.375 C1.52058594 18.15003906 1.52058594 18.15003906 1.4140625 19.9609375 C1 23 1 23 -1 25 C-0.9278125 23.865625 -0.855625 22.73125 -0.78125 21.5625 C-0.68737189 20.04167457 -0.59362913 18.52084078 -0.5 17 C-0.45230469 16.25621094 -0.40460938 15.51242188 -0.35546875 14.74609375 C-0.05564256 9.82037776 0.04486229 4.93485224 0 0 Z " fill="#21bf73" transform="translate(177,130)"/>
<path d="M0 0 C-1 1 -1 1 -4.23461914 1.11352539 C-5.66814126 1.11336631 -7.10166912 1.10767407 -8.53515625 1.09765625 C-9.66503212 1.09553383 -9.66503212 1.09553383 -10.81773376 1.09336853 C-13.2326956 1.08775376 -15.64756601 1.07519883 -18.0625 1.0625 C-19.69596221 1.0574869 -21.32942586 1.05292366 -22.96289062 1.04882812 C-26.97529585 1.03777954 -30.98763241 1.02050506 -35 1 C-34.67 1.99 -34.34 2.98 -34 4 C-34.99 4 -35.98 4 -37 4 C-37.33 4.99 -37.66 5.98 -38 7 C-38.33 6.34 -38.66 5.68 -39 5 C-38.04125977 2.42138672 -38.04125977 2.42138672 -36 0 C-33.25308982 -0.54081811 -31.09530255 -0.74522403 -28.33984375 -0.7421875 C-27.59416641 -0.75968048 -26.84848907 -0.77717346 -26.08021545 -0.79519653 C-23.69908469 -0.84476934 -21.31907099 -0.85962107 -18.9375 -0.875 C-17.33003457 -0.90671884 -15.72260931 -0.9405484 -14.11523438 -0.9765625 C-2.38109189 -1.19054595 -2.38109189 -1.19054595 0 0 Z " fill="#21bf73" transform="translate(568,158)"/>
<path d="M0 0 C0 0.66 0 1.32 0 2 C-3.18824568 3.59412284 -6.62896662 3.10174735 -10.125 3.0625 C-10.87910156 3.05798828 -11.63320312 3.05347656 -12.41015625 3.04882812 C-14.27347127 3.03703499 -16.13674555 3.01909942 -18 3 C-17 1 -17 1 -14 0 C-12.17158659 -0.24782712 -10.33701959 -0.45216214 -8.5 -0.625 C-7.5409375 -0.72039062 -6.581875 -0.81578125 -5.59375 -0.9140625 C-3 -1 -3 -1 0 0 Z " fill="#21bf73" transform="translate(139,182)"/>
<path d="M0 0 C0.33 0 0.66 0 1 0 C1.33 7.59 1.66 15.18 2 23 C4.97 23 7.94 23 11 23 C11 23.66 11 24.32 11 25 C9.35425434 25.02688151 7.70838587 25.04634123 6.0625 25.0625 C5.14597656 25.07410156 4.22945312 25.08570313 3.28515625 25.09765625 C1 25 1 25 0 24 C-0.08726223 22.21928754 -0.10699041 20.4351686 -0.09765625 18.65234375 C-0.09443359 17.57275391 -0.09121094 16.49316406 -0.08789062 15.38085938 C-0.07951172 14.24455078 -0.07113281 13.10824219 -0.0625 11.9375 C-0.05798828 10.79732422 -0.05347656 9.65714844 -0.04882812 8.48242188 C-0.03699747 5.65489649 -0.0205141 2.8274736 0 0 Z " fill="#21bf73" transform="translate(589,144)"/>
<path d="M0 0 C3 2 3 2 4 5 C4.99 5.66 5.98 6.32 7 7 C7.66 6.01 8.32 5.02 9 4 C11.31 6.64 13.62 9.28 16 12 C15.01 12.495 15.01 12.495 14 13 C12.824375 12.01 12.824375 12.01 11.625 11 C9.28487188 8.79798559 9.28487188 8.79798559 7 9 C6.67 9.99 6.34 10.98 6 12 C5.18071114 10.75443908 4.36984814 9.50333365 3.5625 8.25 C2.88380859 7.20585937 2.88380859 7.20585937 2.19140625 6.140625 C1.0391991 4.07042986 0.45323018 2.31303676 0 0 Z " fill="#21bf73" transform="translate(85,158)"/>
<path d="M0 0 C2 0 2 0 3.9375 1.8125 C4.618125 2.534375 5.29875 3.25625 6 4 C6.5775 4.5775 7.155 5.155 7.75 5.75 C8.1625 6.1625 8.575 6.575 9 7 C8.67 7.99 8.34 8.98 8 10 C8.66 10.33 9.32 10.66 10 11 C11.6875 13.4375 11.6875 13.4375 13 16 C12.67 16.66 12.34 17.32 12 18 C9.99224902 15.38084613 7.99515805 12.75375554 6 10.125 C5.42765625 9.37863281 4.8553125 8.63226563 4.265625 7.86328125 C3.72421875 7.14785156 3.1828125 6.43242187 2.625 5.6953125 C2.12226563 5.03547363 1.61953125 4.37563477 1.1015625 3.69580078 C0 2 0 2 0 0 Z " fill="#21bf73" transform="translate(491,140)"/>
<path d="M0 0 C-1.33333333 1.33333333 -2.66666667 2.66666667 -4 4 C-4 4.66 -4 5.32 -4 6 C-1.36 6 1.28 6 4 6 C3.67 6.66 3.34 7.32 3 8 C0.36 8 -2.28 8 -5 8 C-5 7.34 -5 6.68 -5 6 C-6.32 6 -7.64 6 -9 6 C-9.33 5.01 -9.66 4.02 -10 3 C-6.48812804 0.59185923 -4.27343092 -0.36629408 0 0 Z " fill="#21bf73" transform="translate(137,132)"/>
<path d="M0 0 C3.86470695 1.28823565 4.54674168 3.06537934 6.62109375 6.40625 C8.30301106 8.35022241 9.50160446 8.61807966 12 9 C12.33 8.34 12.66 7.68 13 7 C13 10.3 13 13.6 13 17 C7.84577707 12.32898547 3.88634822 6.74755221 0 1 C0 0.67 0 0.34 0 0 Z " fill="#21bf73" transform="translate(293,123)"/>
<path d="M0 0 C3.5625 0.1875 3.5625 0.1875 5.5625 2.1875 C4.0775 4.6625 4.0775 4.6625 2.5625 7.1875 C-2.11442308 5.71057692 -2.11442308 5.71057692 -3.75 3.0625 C-3.976875 2.44375 -4.20375 1.825 -4.4375 1.1875 C-3.4375 0.1875 -3.4375 0.1875 0 0 Z " fill="#21bf73" transform="translate(294.4375,114.8125)"/>
<path d="M0 0 C1.22589844 0.01353516 1.22589844 0.01353516 2.4765625 0.02734375 C3.41628906 0.04474609 3.41628906 0.04474609 4.375 0.0625 C3.375 3.0625 3.375 3.0625 1.375 4.0625 C1.045 3.4025 0.715 2.7425 0.375 2.0625 C-0.615 1.7325 -1.605 1.4025 -2.625 1.0625 C-2.439375 1.68125 -2.25375 2.3 -2.0625 2.9375 C-1.625 5.0625 -1.625 5.0625 -2.625 7.0625 C-4.6875 7.6875 -4.6875 7.6875 -6.625 8.0625 C-6.625 5.7525 -6.625 3.4425 -6.625 1.0625 C-4.21954362 -0.14022819 -2.67503047 -0.03821472 0 0 Z " fill="#21bf73" transform="translate(272.625,136.9375)"/>
<path d="M0 0 C4.75481646 0.57634139 7.97048212 2.55068521 12 5 C11.67 5.99 11.34 6.98 11 8 C10.01 8 9.02 8 8 8 C7.67 7.34 7.34 6.68 7 6 C4.97536745 5.34786708 4.97536745 5.34786708 3 5 C3 4.34 3 3.68 3 3 C2.01 2.67 1.02 2.34 0 2 C0 1.34 0 0.68 0 0 Z " fill="#21bf73" transform="translate(140,97)"/>
<path d="M0 0 C2.70928684 4.06393026 5.18515948 7.87066599 4.75 12.875 C4 15 4 15 3 16 C0.64686445 16.07271741 -1.70833668 16.08370868 -4.0625 16.0625 C-5.35285156 16.05347656 -6.64320313 16.04445312 -7.97265625 16.03515625 C-8.97167969 16.02355469 -9.97070312 16.01195312 -11 16 C-11 15.67 -11 15.34 -11 15 C-4.565 14.505 -4.565 14.505 2 14 C2.33 13.01 2.66 12.02 3 11 C2.34 10.67 1.68 10.34 1 10 C1.66 10 2.32 10 3 10 C2.505 9.0925 2.01 8.185 1.5 7.25 C0 4 0 4 0 0 Z " fill="#21bf73" transform="translate(448,154)"/>
<path d="M0 0 C0 0.66 0 1.32 0 2 C-5.94 2 -11.88 2 -18 2 C-18 1.34 -18 0.68 -18 0 C-11.84098757 -1.23180249 -6.21324498 -0.73030908 0 0 Z " fill="#21bf73" transform="translate(137,167)"/>
<path d="M0 0 C3.32310483 1.16757737 5.83361132 2.14948857 8 5 C8 5.99 8 6.98 8 8 C8.66 8.33 9.32 8.66 10 9 C9.01 9.33 8.02 9.66 7 10 C3.60582235 6.87378374 1.3937282 4.43458973 0 0 Z " fill="#21bf73" transform="translate(154,105)"/>
<path d="M0 0 C3.25414642 3.75632951 4.89627092 8.07840521 6.75 12.625 C7.07871094 13.40101563 7.40742187 14.17703125 7.74609375 14.9765625 C8.05160156 15.7190625 8.35710938 16.4615625 8.671875 17.2265625 C8.9512793 17.90283691 9.23068359 18.57911133 9.51855469 19.27587891 C10 21 10 21 9 23 C5.91798063 18.85521532 4.17697595 15.04501743 2.66015625 10.11328125 C1.98628583 7.84620215 1.98628583 7.84620215 0.8125 5.125 C0 3 0 3 0 0 Z " fill="#21bf73" transform="translate(564,121)"/>
<path d="M0 0 C4.17383395 3.92831431 7.89394426 8.16479983 11 13 C11 13.66 11 14.32 11 15 C10.01 14.67 9.02 14.34 8 14 C7.67 13.01 7.34 12.02 7 11 C6.34 10.67 5.68 10.34 5 10 C5 9.34 5 8.68 5 8 C4.360625 7.79375 3.72125 7.5875 3.0625 7.375 C1 6 1 6 0.25 2.875 C0.1675 1.92625 0.085 0.9775 0 0 Z " fill="#21bf73" transform="translate(498,132)"/>
<path d="M0 0 C0.33 0.99 0.66 1.98 1 3 C-0.32 4.32 -1.64 5.64 -3 7 C-3 5.35 -3 3.7 -3 2 C-9.19863615 1.37685789 -9.19863615 1.37685789 -14.5625 4 C-15.036875 4.66 -15.51125 5.32 -16 6 C-16.66 5.67 -17.32 5.34 -18 5 C-13.46586082 -1.71724322 -7.50434409 -0.4944297 0 0 Z " fill="#21bf73" transform="translate(258,114)"/>
<path d="M0 0 C0.33 0.66 0.66 1.32 1 2 C0.67 2.66 0.34 3.32 0 4 C1.65 4 3.3 4 5 4 C3.68 6.31 2.36 8.62 1 11 C0.67 11 0.34 11 0 11 C-0.33 9.35 -0.66 7.7 -1 6 C-2.32 6.99 -3.64 7.98 -5 9 C-3.7508258 5.54074837 -2.32472205 2.85306797 0 0 Z " fill="#21bf73" transform="translate(92,110)"/>
<path d="M0 0 C7.25 7.25 7.25 7.25 8 11 C2.19794344 5.35475578 2.19794344 5.35475578 0 2 C0 1.34 0 0.68 0 0 Z M7 2 C8.65 3.65 10.3 5.3 12 7 C11.01 7.495 11.01 7.495 10 8 C9.34 7.67 8.68 7.34 8 7 C7.375 4.4375 7.375 4.4375 7 2 Z " fill="#21bf73" transform="translate(80,168)"/>
<path d="M0 0 C1.98 1.65 3.96 3.3 6 5 C5.67 5.66 5.34 6.32 5 7 C4.01 6.34 3.02 5.68 2 5 C2.33 6.98 2.66 8.96 3 11 C0.35247996 8.42215154 -1.94432065 6.08351902 -4 3 C-1.525 3.495 -1.525 3.495 1 4 C0.67 2.68 0.34 1.36 0 0 Z " fill="#21bf73" transform="translate(166,101)"/>
<path d="M0 0 C5.75 0.75 5.75 0.75 8 3 C9.31747324 3.69748583 10.64914193 4.36959957 12 5 C8.84979535 6.38609004 7.68081978 5.89180331 4.3125 4.75 C1 3 1 3 0 0 Z " fill="#21bf73" transform="translate(99,185)"/>
<path d="M0 0 C0.66 0 1.32 0 2 0 C2.33 0.66 2.66 1.32 3 2 C4.65 2 6.3 2 8 2 C8 4.97 8 7.94 8 11 C4.31993178 7.61831569 2.0214155 4.57478244 0 0 Z " fill="#21bf73" transform="translate(239,153)"/>
<path d="M0 0 C2.3431213 0.25561323 4.67843403 0.59270772 7 1 C7.33 1.66 7.66 2.32 8 3 C7.34 3 6.68 3 6 3 C6.30035156 3.55429688 6.60070312 4.10859375 6.91015625 4.6796875 C7.29042969 5.40414062 7.67070312 6.12859375 8.0625 6.875 C8.44535156 7.59429687 8.82820313 8.31359375 9.22265625 9.0546875 C9.60744141 10.01761719 9.60744141 10.01761719 10 11 C9.67 11.66 9.34 12.32 9 13 C7.49710267 11.02297434 5.99758658 9.0435417 4.5 7.0625 C4.07074219 6.49853516 3.64148438 5.93457031 3.19921875 5.35351562 C0 1.11328125 0 1.11328125 0 0 Z " fill="#21bf73" transform="translate(306,141)"/>
<path d="M0 0 C2 0 2 0 3.625 1.375 C5 3 5 3 5 5 C6.65 5.33 8.3 5.66 10 6 C10 6.66 10 7.32 10 8 C8.39402675 7.54803755 6.79027492 7.08817673 5.1875 6.625 C4.29417969 6.36976562 3.40085938 6.11453125 2.48046875 5.8515625 C0 5 0 5 -3 3 C-2.01 3 -1.02 3 0 3 C0 2.01 0 1.02 0 0 Z " fill="#21bf73" transform="translate(138,97)"/>
<path d="M0 0 C0.33 0.66 0.66 1.32 1 2 C0.00390625 4.1640625 0.00390625 4.1640625 -1.4375 6.625 C-1.91058594 7.44226563 -2.38367188 8.25953125 -2.87109375 9.1015625 C-3.24363281 9.72804687 -3.61617187 10.35453125 -4 11 C-5.65 10.67 -7.3 10.34 -9 10 C-8.67 8.68 -8.34 7.36 -8 6 C-8 6.66 -8 7.32 -8 8 C-6.35 7.67 -4.7 7.34 -3 7 C-2.690625 6.030625 -2.38125 5.06125 -2.0625 4.0625 C-1 1 -1 1 0 0 Z " fill="#21bf73" transform="translate(170,157)"/>
<path d="M0 0 C0 0.99 0 1.98 0 3 C-6.4 3.36923077 -6.4 3.36923077 -9.4375 1.5 C-9.953125 1.005 -10.46875 0.51 -11 0 C-7.18243176 -1.37432457 -3.92744671 -0.67975039 0 0 Z " fill="#21bf73" transform="translate(140,135)"/>
<path d="M0 0 C0 3.68553144 -0.8522582 5.03759752 -3 8 C-5.5625 9.875 -5.5625 9.875 -8 11 C-8.66 10.67 -9.32 10.34 -10 10 C-6.7 6.7 -3.4 3.4 0 0 Z " fill="#21bf73" transform="translate(231,127)"/>
<path d="M0 0 C0.94875 0.350625 1.8975 0.70125 2.875 1.0625 C2.875 2.0525 2.875 3.0425 2.875 4.0625 C0.565 4.0625 -1.745 4.0625 -4.125 4.0625 C-4.455 2.7425 -4.785 1.4225 -5.125 0.0625 C-3.125 -0.9375 -3.125 -0.9375 0 0 Z " fill="#21bf73" transform="translate(542.125,148.9375)"/>
<path d="M0 0 C3.63 0.66 7.26 1.32 11 2 C11 2.33 11 2.66 11 3 C9.39125 3.12375 9.39125 3.12375 7.75 3.25 C3.7261549 4.05476902 2.51830747 4.87729874 0 8 C0 5.36 0 2.72 0 0 Z " fill="#21bf73" transform="translate(103,148)"/>
<path d="M0 0 C1.32 0.66 2.64 1.32 4 2 C3.49701212 6.40114397 1.91227269 8.71195019 -1 12 C-0.44271087 8.65626525 0.35173889 5.96687001 2 3 C0.68 3.33 -0.64 3.66 -2 4 C-1.34 2.68 -0.68 1.36 0 0 Z " fill="#21bf73" transform="translate(83,108)"/>
<path d="M0 0 C2.97 0.495 2.97 0.495 6 1 C6.33 1.99 6.66 2.98 7 4 C7.66 4.33 8.32 4.66 9 5 C7.68 5.33 6.36 5.66 5 6 C5 5.34 5 4.68 5 4 C3.02 3.34 1.04 2.68 -1 2 C-0.67 1.34 -0.34 0.68 0 0 Z " fill="#21bf73" transform="translate(147,91)"/>
<path d="M0 0 C1.65 0 3.3 0 5 0 C5 0.66 5 1.32 5 2 C6.32 2.66 7.64 3.32 9 4 C9 4.33 9 4.66 9 5 C7.02 5 5.04 5 3 5 C3 4.34 3 3.68 3 3 C2.34 3 1.68 3 1 3 C0.67 2.01 0.34 1.02 0 0 Z " fill="#21bf73" transform="translate(110,179)"/>
<path d="M0 0 C0.66 0 1.32 0 2 0 C2 0.66 2 1.32 2 2 C2.66 2 3.32 2 4 2 C4 4.31 4 6.62 4 9 C3.01 9.495 3.01 9.495 2 10 C0.39644899 6.49223216 -0.22036864 3.85645121 0 0 Z " fill="#21bf73" transform="translate(177,125)"/>
<path d="M0 0 C0.33 0 0.66 0 1 0 C1.20413361 5.73842251 1.27141454 10.60539047 -1 16 C-1.33 16 -1.66 16 -2 16 C-2.20674944 10.21101581 -1.59162079 5.57067277 0 0 Z " fill="#21bf73" transform="translate(181,146)"/>
<path d="M0 0 C1.32 0 2.64 0 4 0 C4 1.32 4 2.64 4 4 C4.66 4 5.32 4 6 4 C6 4.66 6 5.32 6 6 C3.625 5.75 3.625 5.75 1 5 C-0.3125 2.9375 -0.3125 2.9375 -1 1 C-0.67 0.67 -0.34 0.34 0 0 Z " fill="#21bf73" transform="translate(299,126)"/>
<path d="M0 0 C2.64 0 5.28 0 8 0 C8 0.99 8 1.98 8 3 C5.36 3 2.72 3 0 3 C0 2.01 0 1.02 0 0 Z " fill="#21bf73" transform="translate(131,129)"/>
<path d="M0 0 C0.66 0 1.32 0 2 0 C2.33 1.32 2.66 2.64 3 4 C2.401875 4.226875 1.80375 4.45375 1.1875 4.6875 C-1.56351888 6.33811133 -2.52484637 8.1972081 -4 11 C-5 9 -5 9 -4.25 6.5625 C-3.06380656 4.13080344 -1.97317433 2.79379484 0 1 C0 0.67 0 0.34 0 0 Z " fill="#21bf73" transform="translate(418,120)"/>
<path d="M0 0 C2.9375 0.75 2.9375 0.75 6 2 C6.875 4.125 6.875 4.125 7 6 C4.0625 5.25 4.0625 5.25 1 4 C0.125 1.875 0.125 1.875 0 0 Z " fill="#21bf73" transform="translate(160,99)"/>
<path d="M0 0 C-2.25 2.0625 -2.25 2.0625 -5 4 C-7.3125 3.75 -7.3125 3.75 -9 3 C-7.01532024 -0.96935951 -3.9567243 -1.41311582 0 0 Z " fill="#21bf73" transform="translate(117,98)"/>
<path d="M0 0 C0.66 0 1.32 0 2 0 C2.144375 1.11375 2.28875 2.2275 2.4375 3.375 C2.78372035 6.82142047 2.78372035 6.82142047 4 9 C3.01 10.485 3.01 10.485 2 12 C0.40861915 7.82262526 -0.21278058 4.46839215 0 0 Z " fill="#21bf73" transform="translate(75,148)"/>
<path d="M0 0 C0.66 0 1.32 0 2 0 C2 0.66 2 1.32 2 2 C2.66 2.33 3.32 2.66 4 3 C3.34 4.65 2.68 6.3 2 8 C0.4375 6.8125 0.4375 6.8125 -1 5 C-0.6875 2.3125 -0.6875 2.3125 0 0 Z " fill="#21bf73" transform="translate(167,152)"/>
<path d="M0 0 C0.33 0.66 0.66 1.32 1 2 C1.66 2.33 2.32 2.66 3 3 C2.401875 3.556875 1.80375 4.11375 1.1875 4.6875 C-0.9863446 6.98556429 -2.46898083 9.24416549 -4 12 C-4.33 11.34 -4.66 10.68 -5 10 C-4.00390625 7.6171875 -4.00390625 7.6171875 -2.5625 4.875 C-1.85287109 3.50988281 -1.85287109 3.50988281 -1.12890625 2.1171875 C-0.75636719 1.41851562 -0.38382813 0.71984375 0 0 Z " fill="#21bf73" transform="translate(546,124)"/>
<path d="M0 0 C1.76949095 -0.10815225 3.54087487 -0.18566083 5.3125 -0.25 C6.29863281 -0.29640625 7.28476562 -0.3428125 8.30078125 -0.390625 C11 0 11 0 12.91796875 1.828125 C14 4 14 4 13 7 C10 3.25 10 3.25 10 1 C6.7 1 3.4 1 0 1 C0 0.67 0 0.34 0 0 Z " fill="#21bf73" transform="translate(550,114)"/>
<path d="M0 0 C1.32 0.33 2.64 0.66 4 1 C4 1.66 4 2.32 4 3 C4.99 3.33 5.98 3.66 7 4 C7 4.66 7 5.32 7 6 C4.625 5.8125 4.625 5.8125 2 5 C0.6875 2.4375 0.6875 2.4375 0 0 Z " fill="#21bf73" transform="translate(91,178)"/>
<path d="M0 0 C2.97 0 5.94 0 9 0 C8.67 1.32 8.34 2.64 8 4 C6.68 3.67 5.36 3.34 4 3 C4 2.34 4 1.68 4 1 C2.68 0.67 1.36 0.34 0 0 Z " fill="#21bf73" transform="translate(643,114)"/>
<path d="M0 0 C4.69978858 2.89217759 4.69978858 2.89217759 5.5546875 6.046875 C5.78597215 8.02330745 5.90062818 10.01256369 6 12 C0 3 0 3 0 0 Z " fill="#21bf73" transform="translate(169,112)"/>
<path d="M0 0 C6.75 0.75 6.75 0.75 9 3 C8.05125 2.979375 7.1025 2.95875 6.125 2.9375 C3.09333717 2.77448174 3.09333717 2.77448174 1 4 C0.34 3.67 -0.32 3.34 -1 3 C-0.67 2.01 -0.34 1.02 0 0 Z " fill="#21bf73" transform="translate(144,89)"/>
<path d="M0 0 C0 1.32 0 2.64 0 4 C-1.65 4.33 -3.3 4.66 -5 5 C-5 3.68 -5 2.36 -5 1 C-2 0 -2 0 0 0 Z " fill="#21bf73" transform="translate(167,160)"/>
<path d="M0 0 C1.98 0.495 1.98 0.495 4 1 C4 1.66 4 2.32 4 3 C2.35 2.67 0.7 2.34 -1 2 C-0.67 1.34 -0.34 0.68 0 0 Z M-3 2 C-2.34 2.33 -1.68 2.66 -1 3 C-1 3.99 -1 4.98 -1 6 C-1.99 5.67 -2.98 5.34 -4 5 C-3.67 4.01 -3.34 3.02 -3 2 Z " fill="#21bf73" transform="translate(103,102)"/>
<path d="M0 0 C1.65 0.33 3.3 0.66 5 1 C2.6875 3.5 2.6875 3.5 0 6 C-0.99 6 -1.98 6 -3 6 C-2 4 -1 2 0 0 Z " fill="#21bf73" transform="translate(102,104)"/>
<path d="M0 0 C0.495 0.309375 0.99 0.61875 1.5 0.9375 C4.97986781 2.41644382 8.24028509 2.62402851 12 3 C12 3.33 12 3.66 12 4 C8.37 4 4.74 4 1 4 C0.67 2.68 0.34 1.36 0 0 Z " fill="#21bf73" transform="translate(528,165)"/>
<path d="M0 0 C1.39195915 4.17587745 -0.17676781 6.13474776 -2 10 C-2.33 10 -2.66 10 -3 10 C-3.75 7.25 -3.75 7.25 -4 4 C-2.0625 1.625 -2.0625 1.625 0 0 Z " fill="#21bf73" transform="translate(422,136)"/>
<path d="M0 0 C0.66 0 1.32 0 2 0 C2 1.65 2 3.3 2 5 C-0.64 5 -3.28 5 -6 5 C-6 4.67 -6 4.34 -6 4 C-4.35 3.67 -2.7 3.34 -1 3 C-0.67 2.01 -0.34 1.02 0 0 Z " fill="#21bf73" transform="translate(276,128)"/>
<path d="M0 0 C0.99 0 1.98 0 3 0 C3.66 1.98 4.32 3.96 5 6 C4.01 6 3.02 6 2 6 C1.34 4.02 0.68 2.04 0 0 Z " fill="#21bf73" transform="translate(173,115)"/>
</svg>
